<svg width="25" height="24" viewBox="0 0 25 24" fill="none" xmlns="http://www.w3.org/2000/svg">
<g clip-path="url(#clip0_46_848)">
<path d="M20.1602 3.99001C17.5202 2.19001 14.2602 3.03001 12.5002 5.09001C10.7402 3.03001 7.48021 2.18001 4.84021 3.99001C3.44021 4.95001 2.56021 6.57001 2.50021 8.28001C2.36021 12.16 5.80021 15.27 11.0502 20.04L11.1502 20.13C11.9102 20.82 13.0802 20.82 13.8402 20.12L13.9502 20.02C19.2002 15.26 22.6302 12.15 22.5002 8.27001C22.4402 6.57001 21.5602 4.95001 20.1602 3.99001ZM12.6002 18.55L12.5002 18.65L12.4002 18.55C7.64021 14.24 4.50021 11.39 4.50021 8.50001C4.50021 6.50001 6.00021 5.00001 8.00021 5.00001C9.54021 5.00001 11.0402 5.99001 11.5702 7.36001H13.4402C13.9602 5.99001 15.4602 5.00001 17.0002 5.00001C19.0002 5.00001 20.5002 6.50001 20.5002 8.50001C20.5002 11.39 17.3602 14.24 12.6002 18.55Z" fill="#A0A3BD"/>
</g>
<defs>
<clipPath id="clip0_46_848">
<rect width="24" height="24" fill="white" transform="translate(0.5)"/>
</clipPath>
</defs>
</svg>
