<svg width="24" height="24" viewBox="0 0 24 24" fill="none" xmlns="http://www.w3.org/2000/svg">
<g clip-path="url(#clip0_29_8590)">
<path opacity="0.87" d="M24 -1.04907e-06L24 24L0 24L-1.04907e-06 0L24 -1.04907e-06Z" fill="white"/>
<path d="M9.29006 8.11999L13.1701 12L9.29006 15.88C8.90006 16.27 8.90006 16.9 9.29006 17.29C9.68006 17.68 10.3101 17.68 10.7001 17.29L15.2901 12.7C15.6801 12.31 15.6801 11.68 15.2901 11.29L10.7001 6.69999C10.3101 6.30999 9.68006 6.30999 9.29006 6.69999C8.91006 7.08999 8.90006 7.72999 9.29006 8.11999Z" fill="#4E4B66"/>
</g>
<defs>
<clipPath id="clip0_29_8590">
<rect width="24" height="24" fill="white" transform="translate(0 24) rotate(-90)"/>
</clipPath>
</defs>
</svg>
