<svg width="48" height="48" viewBox="0 0 48 48" fill="none" xmlns="http://www.w3.org/2000/svg">
<g clip-path="url(#clip0_454_1874)">
<path d="M26.12 16L27.95 18H32V30H16V18H20.05L21.88 16H26.12ZM27 14H21L19.17 16H16C14.9 16 14 16.9 14 18V30C14 31.1 14.9 32 16 32H32C33.1 32 34 31.1 34 30V18C34 16.9 33.1 16 32 16H28.83L27 14ZM24 21C25.65 21 27 22.35 27 24C27 25.65 25.65 27 24 27C22.35 27 21 25.65 21 24C21 22.35 22.35 21 24 21ZM24 19C21.24 19 19 21.24 19 24C19 26.76 21.24 29 24 29C26.76 29 29 26.76 29 24C29 21.24 26.76 19 24 19Z" fill="#6E7191"/>
</g>
<defs>
<clipPath id="clip0_454_1874">
<rect width="24" height="24" fill="white" transform="translate(12 12)"/>
</clipPath>
</defs>
</svg>
