<svg width="18" height="18" viewBox="0 0 18 18" fill="none" xmlns="http://www.w3.org/2000/svg">
<g clip-path="url(#clip0_9_20387)">
<path d="M15 3H3C2.1675 3 1.5075 3.6675 1.5075 4.5L1.5 13.5C1.5 14.3325 2.1675 15 3 15H15C15.8325 15 16.5 14.3325 16.5 13.5V4.5C16.5 3.6675 15.8325 3 15 3ZM14.25 13.5H3.75C3.3375 13.5 3 13.1625 3 12.75V9H15V12.75C15 13.1625 14.6625 13.5 14.25 13.5ZM15 6H3V5.25C3 4.8375 3.3375 4.5 3.75 4.5H14.25C14.6625 4.5 15 4.8375 15 5.25V6Z" fill="#008696"/>
</g>
<defs>
<clipPath id="clip0_9_20387">
<rect width="18" height="18" fill="white"/>
</clipPath>
</defs>
</svg>
