<svg width="22" height="22" viewBox="0 0 22 22" fill="none" xmlns="http://www.w3.org/2000/svg">
<g clip-path="url(#clip0_1450_24021)">
<path d="M19.9077 9.76483L12.0144 1.87156C11.3574 1.21452 10.201 1.20576 9.53518 1.87156L1.65068 9.75606C0.967353 10.4394 0.967353 11.5432 1.65068 12.2265L9.53518 20.111C9.87684 20.4527 10.3236 20.6192 10.7704 20.6192C11.2172 20.6192 11.664 20.4527 12.0057 20.111L19.8814 12.2353C20.5735 11.5695 20.5822 10.4657 19.9077 9.76483ZM10.7792 18.8758L2.89468 10.9913L10.7792 3.1068L18.6637 10.9913L10.7792 18.8758ZM7.2662 10.124V13.6282H9.01831V11.0001H12.5225V13.1902L15.5887 10.124L12.5225 7.05781V9.24795H8.14225C7.66042 9.24795 7.2662 9.64218 7.2662 10.124Z" fill="#4E4B66"/>
</g>
<defs>
<clipPath id="clip0_1450_24021">
<rect width="21.0253" height="21.0253" fill="white" transform="translate(0.256958 0.487305)"/>
</clipPath>
</defs>
</svg>
