<svg width="124" height="28" viewBox="0 0 124 28" fill="none" xmlns="http://www.w3.org/2000/svg">
<path d="M90.8822 3.56841H90.6514V25.9606H90.8822V3.56841Z" fill="#424143"/>
<path d="M123.035 21.6334L122.978 21.5728L118.834 17.1371V21.2734V21.3082H118.802H118.026H117.993V21.2734V15.095V15.01L118.049 15.0705L122.193 19.525V15.3326V15.2978H122.226H123.002H123.035V15.3326V21.5484V21.6334ZM112.489 21.3082V20.3943L114.776 15.0905L114.806 15.0222L114.836 15.0905L117.518 21.2599L117.539 21.3082H117.488H116.675H116.654L116.645 21.2882L114.803 17.0424L112.983 21.2876L112.974 21.3082H112.953H112.489ZM112.489 15.9785L112.853 15.35L112.883 15.2978H112.825H112.489V15.9785ZM112.489 15.2985V15.9792L110.994 18.5603V21.2741V21.3088H110.961H110.186H110.153V21.2741V18.5699L108.42 15.5567V15.2991H109.188H109.207L109.217 15.3159L110.584 17.6593L111.937 15.3159L111.946 15.2991H111.965H112.489V15.2985ZM112.489 20.3943L112.116 21.2599L112.096 21.3082H112.146H112.49V20.3943H112.489ZM108.42 21.3082H108.536H108.569V21.2734V20.4716V20.4369H108.536H108.42V21.3082ZM108.42 15.2985V15.5561L108.302 15.3506L108.272 15.2985H108.33H108.42ZM108.42 20.4369H106.717V15.3326V15.2978H106.684H105.918H105.886V15.3326V21.2734V21.3082H105.918H108.42V20.4369ZM105.408 21.3082H105.357H104.544H104.523L104.514 21.2882L102.672 17.0424L100.852 21.2876L100.843 21.3082H100.822H100.015H99.9634L99.9843 21.2599L102.644 15.0905L102.674 15.0222L102.704 15.0905L105.386 21.2599L105.408 21.3082ZM99.6778 21.3082H99.6037H98.6161H98.6022L98.5913 21.2972L96.1274 18.4637V21.2734V21.3082H96.0952H95.3192H95.2856V21.2734V15.3326V15.2978H95.3192H96.0952H96.1274V15.3326V17.6651L98.482 15.3075L98.4915 15.2978H98.5046H99.5859H99.6677L99.6081 15.3577L96.8856 18.0908L99.6277 21.2502L99.6778 21.3082Z" fill="#D71921"/>
<path d="M111.087 12.448L111.461 12.2754C111.472 12.3514 111.481 12.4287 111.49 12.5073C111.49 12.5079 111.322 12.4809 111.087 12.448Z" fill="#FFDE00"/>
<path d="M111.479 12.4117L111.325 12.4826C111.207 12.4652 111.035 12.4401 110.846 12.4156L111.443 12.1413C111.457 12.2302 111.469 12.321 111.479 12.4117Z" fill="#FFDE00"/>
<path d="M111.462 12.2755L111.087 12.4481C110.943 12.4281 110.773 12.4049 110.601 12.3837L111.421 12.0076C111.436 12.0952 111.45 12.1853 111.462 12.2755Z" fill="#FFDE00"/>
<path d="M111.443 12.1409L110.846 12.4152C110.686 12.394 110.513 12.3727 110.35 12.3553L111.395 11.8756C111.413 11.9625 111.428 12.0514 111.443 12.1409Z" fill="#FFDE00"/>
<path d="M111.42 12.0075L110.6 12.3836C110.423 12.3623 110.243 12.343 110.088 12.3314L111.367 11.7447C111.387 11.8304 111.405 11.9186 111.42 12.0075Z" fill="#FFDD00"/>
<path d="M111.396 11.8756L110.35 12.3554C110.149 12.3341 109.962 12.32 109.831 12.32H109.802L111.338 11.6142C111.359 11.7005 111.378 11.7868 111.396 11.8756Z" fill="#FFDA00"/>
<path d="M111.368 11.7448L110.089 12.3314C109.991 12.3237 109.902 12.3199 109.83 12.3199C109.768 12.3199 109.652 12.3192 109.499 12.3147L111.304 11.4853C111.326 11.5709 111.348 11.6565 111.368 11.7448Z" fill="#FFDA00"/>
<path d="M111.338 11.6149L109.801 12.3207C109.694 12.3201 109.483 12.3187 109.211 12.3039L111.269 11.3592C111.293 11.4423 111.316 11.5279 111.338 11.6149Z" fill="#FFD900"/>
<path d="M111.305 11.486L109.498 12.3154C109.345 12.3109 109.153 12.3019 108.939 12.2845L111.231 11.2322C111.257 11.3153 111.281 11.4003 111.305 11.486Z" fill="#FFD700"/>
<path d="M111.269 11.3585L109.211 12.3032C109.051 12.2942 108.871 12.2807 108.679 12.2601L111.19 11.1074C111.218 11.1898 111.245 11.2735 111.269 11.3585Z" fill="#FFD700"/>
<path d="M111.231 11.2321L108.939 12.2844C108.78 12.2715 108.609 12.2541 108.431 12.2303L111.146 10.9835C111.176 11.0646 111.204 11.1477 111.231 11.2321Z" fill="#FFD600"/>
<path d="M111.189 11.1073L108.678 12.26C108.523 12.2439 108.36 12.222 108.194 12.195L111.1 10.8613C111.131 10.9418 111.161 11.0236 111.189 11.1073Z" fill="#FFD600"/>
<path d="M111.146 10.9832L108.43 12.2306C108.28 12.2107 108.125 12.1856 107.969 12.1553L111.052 10.7398C111.085 10.8197 111.116 10.9015 111.146 10.9832Z" fill="#FFD600"/>
<path d="M111.1 10.8609L108.195 12.1946C108.049 12.1708 107.901 12.1431 107.754 12.109L111 10.6188C111.035 10.698 111.068 10.7785 111.1 10.8609Z" fill="#FFD300"/>
<path d="M111.052 10.7405L107.969 12.1553C107.829 12.1282 107.69 12.0967 107.55 12.06L110.947 10.5009C110.984 10.5788 111.018 10.6587 111.052 10.7405Z" fill="#FFD300"/>
<path d="M111.001 10.6192L107.755 12.1094C107.621 12.0791 107.488 12.0437 107.357 12.0038L110.891 10.3815C110.93 10.4594 110.966 10.5387 111.001 10.6192Z" fill="#FFD300"/>
<path d="M110.947 10.5001L107.55 12.0592C107.423 12.0251 107.297 11.9877 107.175 11.9446L110.833 10.2651C110.872 10.3417 110.91 10.4203 110.947 10.5001Z" fill="#FFD300"/>
<path d="M110.891 10.3823L107.357 12.0045C107.237 11.9678 107.117 11.9266 107.002 11.8808L110.772 10.1498C110.812 10.2258 110.853 10.3031 110.891 10.3823Z" fill="#FFD300"/>
<path d="M110.833 10.2648L107.175 11.9444C107.059 11.9038 106.948 11.8593 106.841 11.8098L110.708 10.0343C110.751 10.1096 110.792 10.1863 110.833 10.2648Z" fill="#FFD200"/>
<path d="M110.772 10.1497L107.002 11.8807C106.894 11.8376 106.789 11.7886 106.69 11.7365L110.642 9.92235C110.685 9.99576 110.729 10.0711 110.772 10.1497Z" fill="#FFD200"/>
<path d="M110.709 10.0351L106.841 11.8106C106.74 11.7636 106.643 11.7127 106.55 11.6566L110.574 9.80971C110.619 9.88248 110.664 9.95844 110.709 10.0351Z" fill="#FFD200"/>
<path d="M110.642 9.92149L106.69 11.735C106.595 11.6854 106.504 11.6307 106.42 11.5714L110.502 9.69803C110.549 9.77016 110.596 9.84489 110.642 9.92149Z" fill="#FFD200"/>
<path d="M110.573 9.80903L106.55 11.656C106.462 11.6025 106.379 11.5453 106.302 11.4821L110.43 9.58752C110.478 9.65966 110.526 9.73307 110.573 9.80903Z" fill="#FFD000"/>
<path d="M110.501 9.6983L106.42 11.5717C106.339 11.515 106.262 11.4538 106.193 11.3881L110.352 9.47871C110.403 9.55017 110.453 9.62294 110.501 9.6983Z" fill="#FFD000"/>
<path d="M110.429 9.58742L106.302 11.482C106.228 11.4215 106.159 11.3578 106.097 11.2882L110.275 9.37038C110.326 9.44124 110.378 9.51337 110.429 9.58742Z" fill="#FFD000"/>
<path d="M110.352 9.47855L106.193 11.388C106.127 11.3243 106.067 11.2566 106.012 11.1845L110.192 9.26538C110.246 9.33433 110.3 9.40514 110.352 9.47855Z" fill="#FFCE01"/>
<path d="M110.275 9.37161L106.097 11.2894C106.038 11.2225 105.984 11.151 105.939 11.075L110.11 9.1604C110.165 9.22803 110.22 9.2982 110.275 9.37161Z" fill="#FFCE01"/>
<path d="M110.193 9.26491L106.012 11.184C105.96 11.1131 105.914 11.0378 105.876 10.9579L110.023 9.05493C110.08 9.12256 110.137 9.19278 110.193 9.26491Z" fill="#FFCE01"/>
<path d="M110.11 9.15992L105.94 11.0745C105.895 11.0005 105.857 10.9219 105.828 10.8382L109.935 8.95258C109.993 9.01888 110.052 9.08783 110.11 9.15992Z" fill="#FFCE01"/>
<path d="M110.024 9.05563L105.877 10.9586C105.841 10.8807 105.811 10.7989 105.79 10.7113L109.844 8.8502C109.903 8.91592 109.963 8.98418 110.024 9.05563Z" fill="#FDCA03"/>
<path d="M109.935 8.95244L105.828 10.838C105.798 10.7562 105.777 10.67 105.764 10.5798L109.75 8.75024C109.811 8.814 109.873 8.88162 109.935 8.95244Z" fill="#F4C107"/>
<path d="M109.844 8.85063L105.79 10.7118C105.769 10.6261 105.756 10.5366 105.752 10.4413L109.652 8.65099C109.716 8.7141 109.779 8.78045 109.844 8.85063Z" fill="#EFBD09"/>
<path d="M109.749 8.75019L105.765 10.5797C105.756 10.5147 105.75 10.4484 105.75 10.3782L105.793 10.279L109.553 8.55246C109.617 8.61494 109.683 8.67997 109.749 8.75019Z" fill="#E8B60C"/>
<path d="M109.653 8.65041L105.752 10.4407C105.751 10.4201 105.75 10.3995 105.75 10.3776L105.87 10.0987L109.45 8.45464C109.516 8.51648 109.584 8.58215 109.653 8.65041Z" fill="#E4B20D"/>
<path d="M109.553 8.55256L105.793 10.2791L105.948 9.92042L109.346 8.36066C109.413 8.42054 109.482 8.48434 109.553 8.55256Z" fill="#DEAB0E"/>
<path d="M109.451 8.45573L105.871 10.0998L106.025 9.74116L109.238 8.26642C109.306 8.32503 109.377 8.38746 109.451 8.45573Z" fill="#D9A60E"/>
<path d="M109.346 8.36063L105.948 9.92035L106.102 9.56163L109.125 8.17387C109.196 8.23052 109.269 8.293 109.346 8.36063Z" fill="#D3A10D"/>
<path d="M109.238 8.26671L106.025 9.74145L106.18 9.38274L109.011 8.0825C109.082 8.13724 109.158 8.19845 109.238 8.26671Z" fill="#CC9B0D"/>
<path d="M109.126 8.17384L106.103 9.56164L106.256 9.20293L108.892 7.99355C108.963 8.04569 109.041 8.10557 109.126 8.17384Z" fill="#C1910C"/>
<path d="M109.01 8.08327L106.179 9.38346L106.333 9.02543L108.769 7.90744C108.838 7.9538 108.92 8.01305 109.01 8.08327Z" fill="#AF8009"/>
<path d="M108.892 7.99419L106.257 9.20362L106.411 8.84554L108.642 7.82159C108.704 7.86089 108.79 7.91823 108.892 7.99419Z" fill="#9E7104"/>
<path d="M108.77 7.90675L106.334 9.02474L106.484 8.67632L108.532 7.75415C108.532 7.75479 108.622 7.80502 108.77 7.90675Z" fill="#926600"/>
<path d="M108.643 7.82178L106.412 8.84573L106.484 8.67632L108.533 7.75415C108.533 7.75479 108.572 7.77669 108.643 7.82178Z" fill="#8A5E00"/>
<path d="M111.375 4.35149V3.58901L111.491 3.56841C111.467 3.84146 111.427 4.10163 111.375 4.35149Z" fill="#FFDE00"/>
<path d="M111.261 4.81452V3.60898L111.49 3.56841C111.451 4.01469 111.371 4.42942 111.261 4.81452Z" fill="#FFDE00"/>
<path d="M111.375 3.58873V4.35121C111.315 4.63972 111.238 4.91342 111.146 5.17294V3.62995L111.375 3.58873Z" fill="#FFDE00"/>
<path d="M111.261 3.60858V4.81413C111.195 5.04275 111.118 5.26106 111.032 5.47035V3.6498L111.261 3.60858Z" fill="#FFDE00"/>
<path d="M111.145 3.62938V5.17238C111.078 5.36557 111.001 5.55104 110.917 5.72878V3.67059L111.145 3.62938Z" fill="#FFDE00"/>
<path d="M111.032 3.64995V5.4705C110.961 5.63987 110.885 5.80344 110.802 5.96058V3.69116L111.032 3.64995Z" fill="#FFDD00"/>
<path d="M110.917 3.67076V5.72959C110.845 5.88158 110.768 6.02776 110.688 6.16879V3.71134L110.917 3.67076Z" fill="#FFDD00"/>
<path d="M110.802 3.69037V5.95979C110.73 6.0976 110.653 6.23156 110.573 6.35971V3.73094L110.802 3.69037Z" fill="#FFDD00"/>
<path d="M110.688 3.71046V6.16792C110.614 6.29479 110.538 6.41844 110.458 6.53693V3.75168L110.688 3.71046Z" fill="#FFDA00"/>
<path d="M110.573 3.73151V6.36027C110.5 6.47941 110.424 6.59274 110.344 6.70349V3.77208L110.573 3.73151Z" fill="#FFDA00"/>
<path d="M110.458 3.75111V6.53637C110.384 6.64714 110.308 6.75402 110.229 6.85707V3.79104L110.458 3.75111Z" fill="#FFDA00"/>
<path d="M110.343 3.77168V6.70378C110.269 6.80743 110.193 6.90725 110.114 7.00516V3.8129L110.343 3.77168Z" fill="#FFD900"/>
<path d="M110.229 3.79225V6.8583C110.154 6.95616 110.077 7.05147 109.999 7.14292V3.83218L110.229 3.79225Z" fill="#FFD900"/>
<path d="M110.114 3.81282V7.00507C110.039 7.09847 109.963 7.18732 109.885 7.27425V3.85274L110.114 3.81282Z" fill="#FFD900"/>
<path d="M109.999 3.83315V7.14391C109.925 7.23212 109.849 7.31778 109.771 7.40021V3.87307L109.999 3.83315Z" fill="#FFD700"/>
<path d="M109.885 3.85252V7.27404C109.81 7.35838 109.734 7.44017 109.656 7.51877V3.8931L109.885 3.85252Z" fill="#FFD700"/>
<path d="M109.771 3.87285V7.4C109.696 7.48047 109.619 7.55775 109.542 7.63311V3.91342L109.579 3.90698L109.771 3.87285Z" fill="#FFD700"/>
<path d="M109.656 3.89342V7.51908C109.58 7.59636 109.504 7.67041 109.427 7.74318V3.9282C109.486 3.92111 109.537 3.91467 109.578 3.90694L109.656 3.89342Z" fill="#FFD600"/>
<path d="M109.542 3.91327V7.63295C109.467 7.70636 109.39 7.7785 109.312 7.8474V3.94031C109.403 3.9313 109.481 3.92228 109.542 3.91327Z" fill="#FFD600"/>
<path d="M109.426 3.92857V7.74226C109.35 7.81376 109.274 7.88266 109.197 7.94901V3.9524C109.282 3.94403 109.36 3.9363 109.426 3.92857Z" fill="#FFD600"/>
<path d="M109.312 3.94029V7.84736C109.236 7.91562 109.16 7.98197 109.083 8.04637V3.96348L109.312 3.94029Z" fill="#FFD300"/>
<path d="M109.197 3.95201V7.94859C109.121 8.01494 109.044 8.07806 108.967 8.13986V3.97519L109.197 3.95201Z" fill="#FFD300"/>
<path d="M109.083 3.96373V8.04661C109.006 8.11036 108.93 8.17093 108.854 8.23082V3.9882C108.934 3.97919 109.01 3.97146 109.083 3.96373Z" fill="#FFD300"/>
<path d="M108.967 3.97641V8.13982C108.891 8.20161 108.815 8.26086 108.739 8.31819V4.00024C108.818 3.99187 108.895 3.9835 108.967 3.97641Z" fill="#FFD200"/>
<path d="M108.854 3.98788V8.23047C108.777 8.2904 108.701 8.34768 108.625 8.4037V4.01493C108.703 4.00463 108.78 3.99625 108.854 3.98788Z" fill="#FFD200"/>
<path d="M108.739 4.00151V8.31883C108.662 8.37676 108.586 8.43218 108.51 8.4856V4.02985C108.588 4.01954 108.665 4.00989 108.739 4.00151Z" fill="#FFD200"/>
<path d="M108.624 4.01443V8.40324C108.546 8.45926 108.47 8.51272 108.395 8.56486V4.0447C108.473 4.03375 108.55 4.0241 108.624 4.01443Z" fill="#FFD200"/>
<path d="M108.51 4.02974V8.48549C108.433 8.54023 108.356 8.59242 108.28 8.64265V4.06258C108.358 4.05035 108.434 4.0394 108.51 4.02974Z" fill="#FFD000"/>
<path d="M108.395 4.04576V8.56591C108.317 8.61874 108.241 8.66961 108.165 8.71856V4.08118C108.243 4.06766 108.32 4.05671 108.395 4.04576Z" fill="#FFD000"/>
<path d="M108.28 4.06203V8.64205C108.202 8.6936 108.126 8.7432 108.051 8.79019V4.09937C108.128 4.08585 108.204 4.07362 108.28 4.06203Z" fill="#FFCE01"/>
<path d="M108.165 4.08092V8.71827C108.088 8.7685 108.012 8.81618 107.936 8.86254V4.12149C108.013 4.10668 108.09 4.09251 108.165 4.08092Z" fill="#FFCE01"/>
<path d="M108.051 4.10005V8.79088C107.974 8.83984 107.898 8.8862 107.822 8.93128V4.14385C107.898 4.12839 107.976 4.11358 108.051 4.10005Z" fill="#FFCE01"/>
<path d="M107.936 4.12134V8.86175C107.858 8.90938 107.782 8.95578 107.707 8.99891V4.16835C107.783 4.15161 107.86 4.13615 107.936 4.12134Z" fill="#FFCE01"/>
<path d="M107.822 4.14381V8.93124C107.743 8.97823 107.667 9.02268 107.593 9.06517V4.19469C107.669 4.17666 107.745 4.15992 107.822 4.14381Z" fill="#FCC806"/>
<path d="M107.708 4.16821V8.99878C107.629 9.0445 107.552 9.0883 107.479 9.12952V4.22359C107.555 4.20363 107.631 4.1856 107.708 4.16821Z" fill="#F8C408"/>
<path d="M107.594 4.19452V9.06501C107.515 9.10946 107.439 9.15259 107.364 9.19316V4.25505C107.44 4.23315 107.517 4.21384 107.594 4.19452Z" fill="#F3BD0C"/>
<path d="M107.478 4.22369V9.12961C107.398 9.17337 107.322 9.21527 107.248 9.25452V4.28873C107.324 4.2662 107.4 4.2443 107.478 4.22369Z" fill="#EEB50F"/>
<path d="M107.363 4.25455V9.19267C107.284 9.2358 107.207 9.27765 107.134 9.31567V4.32538C107.209 4.30027 107.285 4.27708 107.363 4.25455Z" fill="#ECB110"/>
<path d="M107.248 4.28874V9.25517C107.167 9.29834 107.091 9.33892 107.019 9.37626V4.36602C107.094 4.33898 107.17 4.31321 107.248 4.28874Z" fill="#E7AC11"/>
<path d="M107.134 4.32701V9.31729C107.053 9.36041 106.976 9.40035 106.904 9.43838V4.41202C106.979 4.38175 107.056 4.35341 107.134 4.32701Z" fill="#E2A612"/>
<path d="M107.019 4.366V9.37624L106.801 9.49086L106.79 9.49665V4.45937C106.864 4.42589 106.941 4.39497 107.019 4.366Z" fill="#DEA013"/>
<path d="M106.903 4.41048V9.43682L106.799 9.49092C106.756 9.51346 106.714 9.53664 106.675 9.56046V4.51287C106.749 4.4768 106.825 4.44268 106.903 4.41048Z" fill="#D99914"/>
<path d="M106.789 4.45926V9.49657C106.708 9.5397 106.631 9.58605 106.561 9.63373V4.57389C106.633 4.53332 106.71 4.49404 106.789 4.45926Z" fill="#D79514"/>
<path d="M106.675 4.51451V9.56209C106.593 9.61168 106.517 9.6645 106.446 9.71728V4.64267C106.519 4.5963 106.596 4.55444 106.675 4.51451Z" fill="#D29014"/>
<path d="M106.562 4.57335V9.63318C106.477 9.69047 106.401 9.74971 106.333 9.80896V4.71889C106.404 4.66673 106.481 4.61907 106.562 4.57335Z" fill="#CD8A14"/>
<path d="M106.445 4.64149V9.71612C106.36 9.78184 106.283 9.84878 106.216 9.91577V4.80957C106.287 4.74904 106.364 4.69301 106.445 4.64149Z" fill="#CB8614"/>
<path d="M106.331 4.71899V9.80971C106.244 9.88508 106.167 9.96172 106.102 10.0358V4.91863C106.17 4.84586 106.247 4.78082 106.331 4.71899Z" fill="#C78014"/>
<path d="M106.216 4.80963V9.91585C106.125 10.006 106.049 10.0936 105.986 10.1747V5.055C106.052 4.96612 106.129 4.88433 106.216 4.80963Z" fill="#C27D13"/>
<path d="M106.102 4.91797V10.0351C106.003 10.1472 105.928 10.2521 105.874 10.3378V5.24576C105.929 5.12597 106.008 5.0165 106.102 4.91797Z" fill="#C07913"/>
<path d="M105.987 5.05501V10.1741C105.825 10.3847 105.758 10.5463 105.758 10.5463V5.75502C105.76 5.48068 105.845 5.25014 105.987 5.05501Z" fill="#BB7412"/>
<path d="M105.874 5.24562V10.3377C105.793 10.4626 105.758 10.5463 105.758 10.5463V5.75502C105.76 5.56504 105.8 5.39696 105.874 5.24562Z" fill="#B26910"/>
<path d="M78.213 25.1782V24.9173H78.5962L78.321 24.151C78.2857 24.0563 78.25 23.9404 78.213 23.8026V23.478H78.3301L79.262 25.9651H78.9768L78.6815 25.1782H78.213ZM82.852 25.9651H82.5371L81.2429 23.887H81.2299C81.2464 24.1311 81.256 24.3545 81.256 24.5573V25.9651H81.0021V23.4883H81.3126L82.6038 25.5588H82.6168C82.6151 25.5285 82.6099 25.4306 82.6033 25.2651C82.5951 25.0989 82.5929 24.9817 82.5946 24.9096V23.4883H82.8524V25.9651H82.852ZM85.288 24.7267L85.9185 23.4883H86.216L85.4269 25.0043V25.9645H85.1478V25.0178L84.3587 23.4877H84.6605L85.288 24.7267ZM78.213 23.478V23.8026L78.2108 23.7936C78.1868 23.9018 78.1529 24.0216 78.1085 24.151L77.8302 24.9173H78.213V25.1782H77.7326L77.4409 25.9651H77.1618L78.0984 23.478H78.213ZM74.9544 24.9811V24.7306C75.0859 24.7125 75.1887 24.6752 75.2609 24.6205C75.3698 24.5387 75.4251 24.4067 75.4251 24.225C75.4251 24.0615 75.3737 23.9398 75.2714 23.8593C75.1956 23.8 75.0902 23.7633 74.9544 23.7472V23.4935C75.4573 23.5276 75.7099 23.7666 75.7099 24.2102C75.7099 24.4608 75.628 24.6533 75.4647 24.7879C75.3371 24.8935 75.1669 24.9579 74.9544 24.9811ZM74.9544 23.4935V23.7472C74.9039 23.7414 74.8494 23.7388 74.7911 23.7388H74.4832V24.7447H74.7305C74.8124 24.7447 74.8864 24.7402 74.9535 24.7312V24.9817C74.8925 24.9888 74.8294 24.9914 74.761 24.9914H74.4823V25.9664H74.2071V23.4896H74.8207C74.8673 23.4883 74.9113 23.4896 74.9544 23.4935ZM67.2971 25.9999V25.7468H67.2989C67.5619 25.7468 67.7609 25.6605 67.8946 25.4886C68.0283 25.3147 68.0953 25.0603 68.0953 24.7242C68.0953 24.3899 68.0287 24.1381 67.895 23.9649C67.7618 23.7929 67.5649 23.7073 67.3028 23.7073H67.2971V23.4503H67.3028C67.6438 23.4503 67.9085 23.5637 68.0997 23.7891C68.2917 24.0157 68.3871 24.3268 68.3871 24.7242C68.3871 25.1202 68.2913 25.4332 68.0997 25.6592C67.9077 25.8872 67.6407 25.9993 67.2989 25.9993H67.2971V25.9999ZM70.9799 25.9651L70.176 23.7697H70.1625C70.1782 23.9443 70.186 24.151 70.186 24.3899V25.9651H69.9317V23.4883H70.3463L71.0966 25.5317H71.1096L71.8665 23.4883H72.2784V25.9651H72.0028V24.3693C72.0028 24.1864 72.0106 23.9874 72.0259 23.773H72.0132L71.202 25.9645H70.9799V25.9651ZM67.2971 23.4503V23.7073C67.0372 23.7079 66.8399 23.7949 66.7036 23.9675C66.5669 24.1407 66.4994 24.3931 66.4994 24.7242C66.4994 25.059 66.5669 25.3134 66.7036 25.4873C66.8408 25.6605 67.038 25.7468 67.2971 25.7468V25.9999C66.9492 25.9999 66.681 25.8885 66.4924 25.6657C66.3021 25.4422 66.2072 25.1273 66.2072 24.7209C66.2072 24.3178 66.3021 24.0055 66.4928 23.7839C66.6823 23.563 66.9501 23.4516 67.2971 23.4503ZM55.7407 24.9354V24.6849C55.8888 24.6733 55.9994 24.6353 56.0752 24.5664C56.1657 24.4865 56.2115 24.3648 56.2115 24.2038C56.2115 24.0396 56.1657 23.9218 56.073 23.849C55.9985 23.791 55.8879 23.7562 55.7407 23.7447V23.4896C55.9837 23.5012 56.1657 23.5592 56.2885 23.6622C56.427 23.7788 56.4967 23.954 56.4967 24.1864C56.4967 24.5149 56.3378 24.7364 56.0203 24.851L56.6635 25.9638H56.3378L55.7642 24.9341H55.7407V24.9354ZM59.5323 25.3082C59.5323 25.5259 59.4566 25.6959 59.3059 25.8176C59.1543 25.94 58.9492 25.9999 58.6901 25.9999C58.4093 25.9999 58.1933 25.9619 58.0422 25.8865V25.6077C58.1388 25.6508 58.2447 25.685 58.3592 25.7101C58.4737 25.7346 58.5874 25.7468 58.6997 25.7468C58.8835 25.7468 59.0215 25.7107 59.1152 25.6373C59.2075 25.5652 59.2549 25.4641 59.2549 25.334C59.2549 25.2484 59.238 25.1782 59.2053 25.1234C59.1718 25.0687 59.116 25.0184 59.0398 24.9714C58.9623 24.9251 58.8447 24.8736 58.6871 24.8143C58.4676 24.7319 58.3095 24.634 58.2146 24.5219C58.1206 24.4086 58.0731 24.2611 58.0731 24.0789C58.0731 23.8876 58.1415 23.7356 58.2786 23.6236C58.4167 23.5102 58.5983 23.4536 58.823 23.4536C59.059 23.4536 59.275 23.4986 59.4735 23.5888L59.3873 23.84C59.1918 23.753 59.0011 23.7111 58.8164 23.7111C58.6714 23.7111 58.5565 23.744 58.475 23.8084C58.3918 23.8754 58.3513 23.9649 58.3513 24.0827C58.3513 24.1684 58.3666 24.2386 58.3962 24.2933C58.4271 24.348 58.4781 24.3989 58.5495 24.444C58.6218 24.4897 58.7319 24.5393 58.8796 24.5954C59.1278 24.6881 59.2989 24.7873 59.3926 24.8935C59.4857 24.9998 59.5323 25.1382 59.5323 25.3082ZM64.0699 23.7111C63.8099 23.7111 63.6044 23.8013 63.4528 23.9823C63.303 24.1639 63.2273 24.4118 63.2273 24.7267C63.2273 25.0513 63.3 25.3018 63.4454 25.4776C63.5909 25.6547 63.7982 25.743 64.0673 25.743C64.2323 25.743 64.4209 25.712 64.6325 25.6502V25.9027C64.4675 25.9683 64.2654 25.9993 64.0255 25.9993C63.6767 25.9993 63.4071 25.8891 63.2181 25.6676C63.0274 25.4467 62.9329 25.1318 62.9329 24.7242C62.9329 24.4685 62.9786 24.245 63.0705 24.0525C63.1606 23.8606 63.293 23.7131 63.4655 23.6094C63.6375 23.5051 63.84 23.4536 64.0734 23.4536C64.3225 23.4536 64.5389 23.5012 64.7248 23.5959L64.6086 23.8432C64.4283 23.7543 64.2497 23.7111 64.0699 23.7111ZM55.7407 23.4909V23.7459C55.705 23.744 55.6684 23.7421 55.6288 23.7421H55.2709V24.6887H55.648C55.6806 24.6887 55.7116 24.6881 55.7407 24.6855V24.936H55.2709V25.9657H54.9956V23.489H55.6449C55.6776 23.4883 55.7102 23.489 55.7407 23.4909ZM24.3247 25.1782V24.9173H24.7084L24.4325 24.151C24.398 24.0563 24.3617 23.9404 24.3253 23.8026V23.478H24.4424L25.3741 25.9651H25.089L24.794 25.1782H24.3247ZM28.8312 25.9651H28.5172L27.2228 23.887H27.2098C27.2264 24.1311 27.2357 24.3545 27.2357 24.5573V25.9651H26.9813V23.4883H27.2917L28.5831 25.5588H28.596C28.5935 25.5285 28.5892 25.4306 28.5812 25.2651C28.5738 25.0989 28.5707 24.9817 28.5732 24.9096V23.4883H28.8306V25.9651H28.8312ZM32.6407 25.9671C32.539 25.9671 32.4596 25.9516 32.4005 25.9213V25.6753C32.4774 25.6985 32.5569 25.7107 32.6407 25.7107C32.7472 25.7107 32.8291 25.6766 32.8845 25.6083C32.9399 25.5414 32.9676 25.4429 32.9676 25.3153V23.489H33.2429V25.2908C33.2429 25.5053 33.1906 25.6727 33.0865 25.79C32.9837 25.9078 32.8346 25.9671 32.6407 25.9671ZM36.5073 25.9651H35.1876V23.4883H36.5073V23.7453H35.4629V24.5425H36.4445V24.7963H35.4629V25.7082H36.5073V25.9651ZM40.2823 25.9651H40.01L39.5322 24.3068C39.5094 24.2334 39.4841 24.1407 39.4558 24.0293C39.4275 23.9166 39.4133 23.8496 39.4121 23.8277C39.3881 23.9765 39.3505 24.1394 39.2982 24.3172L38.8351 25.9657H38.5635L37.9335 23.489H38.2254L38.5992 25.0191C38.651 25.2336 38.6891 25.428 38.7131 25.6012C38.7415 25.3952 38.7858 25.193 38.8425 24.9953L39.2674 23.489H39.5586L40.0045 25.0088C40.0562 25.1833 40.1 25.381 40.1357 25.6012C40.1566 25.4415 40.1954 25.2458 40.2521 25.0152L40.6252 23.489H40.9165L40.2823 25.9651ZM43.9543 25.9651H42.6346V23.4883H43.9543V23.7453H42.9099V24.5425H43.8915V24.7963H42.9099V25.7082H43.9543V25.9651ZM45.6619 25.9651V23.4883H45.9371V25.7049H46.9809V25.9645H45.6619V25.9651ZM48.765 25.9651V23.4883H49.0402V25.7049H50.0849V25.9645H48.765V25.9651ZM53.2216 25.9651H51.9012V23.4883H53.2216V23.7453H52.1764V24.5425H53.1584V24.7963H52.1764V25.7082H53.2216V25.9651ZM24.3247 23.478V23.8026L24.3223 23.7936C24.2989 23.9018 24.265 24.0216 24.22 24.151L23.9411 24.9173H24.3247V25.1782H23.8444L23.5531 25.9651H23.2748L24.2114 23.478H24.3247ZM14.6005 25.1782V24.9173H14.9841L14.7082 24.151C14.6731 24.0563 14.6374 23.9404 14.6011 23.8026V23.478H14.7181L15.6498 25.9651H15.3641L15.0691 25.1782H14.6005ZM17.2897 25.9651V23.4883H17.565V25.7049H18.6094V25.9645H17.2897V25.9651ZM21.0628 24.7267L21.694 23.4883H21.992L21.202 25.0043V25.9645H20.923V25.0178L20.1342 23.4877H20.4359L21.0628 24.7267ZM6.77414 25.9651L6.47916 25.1782H6.01055V24.9173H6.39355L6.11829 24.151C6.08319 24.0563 6.04748 23.9404 6.01055 23.8026V23.478H6.12752L7.05924 25.9651H6.77414ZM14.6005 23.478V23.8026L14.598 23.7936C14.574 23.9018 14.5401 24.0216 14.4958 24.151L14.2168 24.9173H14.6005V25.1782H14.1195L13.8276 25.9651H13.5493L14.4859 23.478H14.6005ZM12.3349 25.9651H12.011L11.147 24.7647L10.8988 24.9946V25.9651H10.623V23.4883H10.8982V24.7164L11.9728 23.4883H12.2992L11.3465 24.5645L12.3349 25.9651ZM6.01055 25.1782H5.52959L5.23831 25.9651H4.95996L5.89659 23.478H6.01055V23.8026L6.00807 23.7936C5.98469 23.9018 5.95081 24.0216 5.90582 24.151L5.6275 24.9173H6.01055V25.1782Z" fill="#231F20"/>
<path d="M18.9769 16.9637L17.4928 20.8064C17.4694 20.8734 17.4282 20.9327 17.3703 20.9842C17.3118 21.0364 17.2391 21.0614 17.1529 21.0614H16.4546L21.6286 7.83713H22.5462L27.7214 21.0614H27.0151C26.9338 21.0614 26.8649 21.0389 26.8101 20.9938C26.7546 20.9475 26.7128 20.8863 26.6826 20.8064L25.5482 17.8866L25.1899 16.9637L24.9201 16.2618L22.3368 9.57978C22.2955 9.47672 22.2549 9.35632 22.2149 9.21851C22.1742 9.08199 22.1305 8.93772 22.0831 8.78576C22.0431 8.93772 22.0018 9.08067 21.9611 9.21401C21.9205 9.34857 21.8805 9.47353 21.8399 9.58879L19.2559 16.2612L18.9769 16.9637Z" fill="#282827"/>
<path d="M29.7119 21.0614V7.83713H30.1578C30.239 7.83713 30.3043 7.84874 30.3542 7.86869C30.4035 7.89059 30.4546 7.93631 30.5076 8.00972L38.6935 19.474C38.6763 19.2853 38.6677 19.1057 38.6677 18.935V7.83713H39.462V21.0614H39.0254C38.8869 21.0614 38.7767 21.0003 38.6954 20.8792L30.4811 9.39689C30.4983 9.58556 30.5082 9.76203 30.5082 9.9256V21.0614H29.7119Z" fill="#282827"/>
<path d="M56.8037 21.0614V7.83713H64.3778V8.62987H57.7108V13.9615H63.2625V14.7549H57.7108V20.2668H64.3778V21.0614H56.8037Z" fill="#282827"/>
<path d="M71.4302 14.3324C71.7215 14.2983 71.9932 14.2409 72.2462 14.1618C72.6922 14.022 73.0667 13.8211 73.3715 13.5584C73.6767 13.2975 73.9119 12.982 74.0748 12.6136C74.2372 12.2452 74.3191 11.8305 74.3191 11.3688C74.3191 10.424 74.0243 9.7266 73.4338 9.27325C72.9482 8.90038 72.2793 8.68079 71.4302 8.61507V7.85261C72.612 7.92024 73.5156 8.21064 74.141 8.722C74.8647 9.31187 75.227 10.1761 75.227 11.3134C75.227 11.8176 75.143 12.2781 74.9766 12.6935C74.8107 13.1101 74.569 13.4752 74.2537 13.7915C73.9372 14.1057 73.5592 14.3659 73.1172 14.5649C72.6769 14.7652 72.1748 14.8959 71.6131 14.9565C71.7598 15.0479 71.8892 15.1715 71.9998 15.33L76.3679 21.0602H75.5741C75.4804 21.0602 75.4003 21.0421 75.3302 21.0054C75.2614 20.9681 75.193 20.905 75.1303 20.8135L71.4311 15.9315V14.3324H71.4302ZM68.5417 14.3711H70.7408C70.9812 14.3711 71.2111 14.3575 71.4302 14.3318V15.9321L71.0635 15.4478C70.9647 15.3087 70.8571 15.2108 70.7408 15.1561C70.625 15.1013 70.4443 15.0736 70.1991 15.0736H68.5417V21.0608H67.6338V7.83713H70.8619C71.0579 7.83713 71.2482 7.84296 71.4302 7.85325V8.61571C71.2464 8.60155 71.0552 8.59449 70.8541 8.59449H68.5409V14.3711H68.5417Z" fill="#282827"/>
<path d="M78.6401 21.0614V7.83713H86.2164V8.62987H79.549V13.9615H85.0972V14.7549H79.549V20.2668H86.2164V21.0614H78.6401Z" fill="#282827"/>
<path d="M53.4133 11.6972C53.1198 10.8819 52.7091 10.1858 52.1805 9.61197C51.6522 9.03558 51.0178 8.59832 50.281 8.29307C49.5437 7.98782 48.7255 7.83713 47.8245 7.83713H43.2236V10.5071H44.1313V8.63056H47.8188C48.5813 8.63056 49.2772 8.76126 49.9065 9.02206C50.5353 9.28291 51.0713 9.6622 51.5142 10.1594C51.9571 10.6572 52.2994 11.2657 52.5445 11.9838C52.7888 12.7025 52.9116 13.5236 52.9116 14.4438C52.9116 15.3725 52.7888 16.1961 52.5445 16.9142C52.2994 17.6322 51.9566 18.2414 51.5142 18.7392C51.0713 19.2357 50.5357 19.6157 49.9065 19.8765C49.2772 20.1367 48.5813 20.2674 47.8188 20.2674H44.1313V18.3928H43.2236V21.0621H47.8245C48.7255 21.0621 49.5437 20.9101 50.281 20.6055C51.0178 20.3022 51.6522 19.8617 52.1805 19.286C52.7091 18.7115 53.1202 18.0167 53.4133 17.202C53.7072 16.3861 53.854 15.4678 53.854 14.4445C53.854 13.4283 53.7068 12.5119 53.4133 11.6972Z" fill="#282827"/>
<path fill-rule="evenodd" clip-rule="evenodd" d="M15.3359 19.2912C15.3507 19.3072 15.2281 19.4128 15.2066 19.436C13.9282 20.809 11.8818 21.471 9.63597 21.1471C6.88021 20.7511 5.01924 18.5486 4.42005 15.8902C4.09183 14.4323 4.14233 12.7765 4.63251 11.3482C4.78523 10.9038 4.98537 10.4711 5.23108 10.0589L6.79155 10.8072C4.92564 13.8346 5.67632 18.698 9.02941 20.0504C10.2019 20.5231 11.9422 20.5076 13.2145 19.9429C13.7816 19.691 14.3611 19.183 14.6585 18.9079C14.6869 18.8816 14.8586 18.7547 14.996 18.9099L15.3359 19.2912ZM8.77566 7.24402C11.101 6.56977 13.3703 7.38633 14.863 8.96217L15.1912 9.30863C15.1955 9.31314 15.1419 9.4014 14.9055 9.72272C14.8586 9.78648 14.7786 9.86444 14.6351 9.82191C14.5292 9.79099 14.403 9.68798 14.31 9.63C14.023 9.45099 13.7927 9.3125 13.5876 9.20112C13.1251 8.94997 12.7901 8.83402 12.2212 8.67755C11.2303 8.40577 10.0553 8.5249 9.09773 8.88557L8.77566 7.24402Z" fill="#19B8CA"/>
<path d="M8.38203 10.3062L7.18611 9.47291L5.90771 10.1568L6.70457 8.90685L6.0512 7.56927L7.24586 8.40324L8.52552 7.71869L7.72744 8.96865L8.38203 10.3062Z" fill="#19B8CA"/>
<path d="M7.91292 4.73695L6.71826 3.90235L5.43799 4.58755L6.23607 3.33692L5.58147 2L6.77675 2.83397L8.0558 2.14876L7.25833 3.39939L7.91292 4.73695Z" fill="#19B8CA"/>
<path d="M3.7795 8.44327L2.58545 7.61059L1.30518 8.29514L2.10265 7.04454L1.44928 5.70695L2.64333 6.54092L3.92299 5.85636L3.12551 7.10697L3.7795 8.44327Z" fill="#19B8CA"/>
<path d="M123.236 25.3086C123.236 25.5076 123.167 25.6628 123.029 25.7742C122.891 25.885 122.704 25.941 122.468 25.941C122.212 25.941 122.015 25.9056 121.877 25.8373V25.5836C121.966 25.6222 122.062 25.6525 122.167 25.6757C122.271 25.6989 122.375 25.7098 122.477 25.7098C122.644 25.7098 122.771 25.6763 122.855 25.6107C122.939 25.5449 122.982 25.4522 122.982 25.3344C122.982 25.2558 122.966 25.1914 122.937 25.1418C122.907 25.0922 122.856 25.0458 122.786 25.0034C122.717 24.9615 122.609 24.9125 122.465 24.8598C122.265 24.7844 122.12 24.6949 122.035 24.5925C121.949 24.4901 121.905 24.3555 121.905 24.1887C121.905 24.0148 121.968 23.877 122.093 23.7733C122.219 23.671 122.384 23.6194 122.59 23.6194C122.804 23.6194 123.002 23.66 123.182 23.7424L123.103 23.9704C122.926 23.8925 122.752 23.8526 122.583 23.8526C122.45 23.8526 122.346 23.8828 122.272 23.9421C122.197 24.0026 122.159 24.085 122.159 24.1919C122.159 24.2699 122.173 24.3342 122.2 24.3838C122.228 24.4341 122.275 24.4804 122.34 24.5223C122.406 24.5635 122.507 24.6099 122.641 24.6601C122.867 24.7451 123.023 24.8346 123.108 24.9319C123.192 25.0285 123.236 25.154 123.236 25.3086Z" fill="#231F20"/>
<path d="M119.09 24.7419C119.224 24.7316 119.326 24.6955 119.395 24.6344C119.478 24.5609 119.518 24.4508 119.518 24.3033C119.518 24.1539 119.477 24.0464 119.392 23.9807C119.325 23.9279 119.224 23.895 119.09 23.886V23.6529C119.311 23.6645 119.477 23.7167 119.589 23.8101C119.715 23.9163 119.779 24.076 119.779 24.2885C119.779 24.5873 119.635 24.7889 119.346 24.8939L119.932 25.9081H119.635L119.112 24.9692H119.09V24.7419H119.09ZM118.661 24.7451H119.004C119.035 24.7451 119.063 24.7445 119.09 24.7419V24.9698H118.661V25.9088H118.411V23.651H119.002C119.033 23.651 119.062 23.6516 119.09 23.6529V23.886C119.059 23.8828 119.024 23.8815 118.988 23.8815H118.662V24.7451H118.661Z" fill="#231F20"/>
<path d="M116.386 25.9079H115.184V23.65H116.386V23.8844H115.434V24.6121H116.328V24.8421H115.434V25.6741H116.386V25.9079Z" fill="#231F20"/>
<path d="M111.797 25.9079V23.65H112.048V25.6709H113V25.9079H111.797Z" fill="#231F20"/>
<path d="M108.411 25.9079V23.65H108.662V25.6709H109.614V25.9079H108.411Z" fill="#231F20"/>
<path d="M106.229 25.9079H105.025V23.65H106.229V23.8844H105.276V24.6121H106.171V24.8421H105.276V25.6741H106.229V25.9079Z" fill="#231F20"/>
<path d="M103.024 25.908H102.775L102.34 24.3959C102.319 24.3289 102.297 24.2452 102.271 24.1428C102.245 24.0405 102.232 23.9786 102.231 23.9587C102.21 24.0952 102.175 24.2433 102.127 24.4056L101.705 25.9073H101.457L100.882 23.6496H101.149L101.49 25.0444C101.537 25.2396 101.572 25.4167 101.593 25.5757C101.619 25.387 101.659 25.2028 101.711 25.0225L102.098 23.6496H102.364L102.77 25.0348C102.817 25.1938 102.858 25.3741 102.89 25.5757C102.908 25.4289 102.943 25.2511 102.996 25.0412L103.336 23.6496H103.602L103.024 25.908Z" fill="#231F20"/>
<path d="M99.4567 25.9079H98.2544V23.65H99.4567V23.8844H98.5048V24.6121H99.3988V24.8421H98.5048V25.6741H99.4567V25.9079Z" fill="#231F20"/>
<path d="M95.3032 25.9336C95.2109 25.9336 95.1381 25.9201 95.0854 25.8911V25.6676C95.1551 25.6882 95.2274 25.6992 95.3032 25.6992C95.4007 25.6992 95.4752 25.6676 95.5257 25.6058C95.5762 25.5446 95.6019 25.4557 95.6019 25.3392V23.65H95.8528V25.3167C95.8528 25.5124 95.8044 25.6644 95.7104 25.772C95.6163 25.8795 95.4809 25.9336 95.3032 25.9336Z" fill="#231F20"/>
</svg>
