<svg width="11" height="14" viewBox="0 0 11 14" fill="none" xmlns="http://www.w3.org/2000/svg">
<path fill-rule="evenodd" clip-rule="evenodd" d="M10.1579 12.3233C10.1686 12.3344 10.0798 12.4077 10.0642 12.4237C9.13871 13.3758 7.6572 13.8349 6.03125 13.6103C4.03614 13.3356 2.68884 11.8084 2.25505 9.965C2.01742 8.95399 2.05398 7.80586 2.40886 6.81538C2.51942 6.50727 2.66432 6.20718 2.84221 5.92137L3.97195 6.44029C2.62108 8.53955 3.16455 11.912 5.59211 12.8498C6.44097 13.1775 7.7009 13.1668 8.62199 12.7752C9.03259 12.6006 9.45212 12.2483 9.66744 12.0576C9.68797 12.0393 9.81234 11.9513 9.91177 12.0589L10.1579 12.3233ZM5.4084 3.96945C7.09187 3.50191 8.73479 4.06814 9.81546 5.16087L10.0531 5.40112C10.0562 5.40424 10.0174 5.46544 9.84623 5.68826C9.81234 5.73247 9.75439 5.78653 9.65051 5.75704C9.57384 5.73559 9.48244 5.66416 9.4151 5.62396C9.20734 5.49983 9.04063 5.4038 8.89214 5.32656C8.55732 5.15241 8.31479 5.07201 7.90286 4.96351C7.1855 4.77505 6.33485 4.85766 5.64158 5.10776L5.4084 3.96945Z" fill="#4E4B66"/>
<path d="M5.12338 6.09295L4.25756 5.5151L3.33203 5.98935L3.90894 5.12259L3.43591 4.19507L4.30082 4.77336L5.22726 4.29868L4.64947 5.16544L5.12338 6.09295Z" fill="#4E4B66"/>
<path d="M4.783 2.23114L3.9181 1.6524L2.99121 2.12754L3.569 1.26031L3.09509 0.333252L3.96044 0.911551L4.88644 0.436409L4.30909 1.30363L4.783 2.23114Z" fill="#4E4B66"/>
<path d="M1.79135 4.80101L0.926885 4.2236L0 4.69829L0.577352 3.83108L0.104325 2.90356L0.968794 3.48186L1.89523 3.00717L1.31788 3.87438L1.79135 4.80101Z" fill="#4E4B66"/>
</svg>
