<svg width="99" height="24" viewBox="0 0 99 24" fill="none" xmlns="http://www.w3.org/2000/svg">
<path d="M99 1H0V21H91L99 1Z" fill="url(#paint0_linear_6_5156)"/>
<g filter="url(#filter0_di_6_5156)">
<path d="M84 16.3846L99 1L91 21C89 18.5385 85.5 16.8974 84 16.3846Z" fill="#FFFFFE"/>
</g>
<path d="M5.7125 14.15L5 13.4375L8.825 9.625L10.9125 11.7125L13.6375 9H12.1V8H15.3V11.2H14.325V9.7125L10.9 13.1375L8.8125 11.05L5.7125 14.15Z" fill="#4E4B66"/>
<path d="M25.78 8.71H23.5V15H22.44V8.71H20.15V7.82H25.78V8.71ZM30.0477 11.28C30.3211 11.28 30.5611 11.2467 30.7677 11.18C30.9777 11.1133 31.1527 11.02 31.2927 10.9C31.4327 10.7767 31.5377 10.6317 31.6077 10.465C31.6777 10.295 31.7127 10.1083 31.7127 9.905C31.7127 9.49167 31.5761 9.18 31.3027 8.97C31.0327 8.76 30.6261 8.655 30.0827 8.655H29.0777V11.28H30.0477ZM33.3977 15H32.4477C32.2577 15 32.1194 14.925 32.0327 14.775L30.2577 12.285C30.2011 12.2017 30.1394 12.1433 30.0727 12.11C30.0061 12.0733 29.9061 12.055 29.7727 12.055H29.0777V15H28.0127V7.82H30.0827C30.5461 7.82 30.9444 7.86833 31.2777 7.965C31.6144 8.05833 31.8911 8.19333 32.1077 8.37C32.3277 8.54333 32.4894 8.75333 32.5927 9C32.6994 9.24667 32.7527 9.52333 32.7527 9.83C32.7527 10.08 32.7144 10.315 32.6377 10.535C32.5611 10.755 32.4477 10.9533 32.2977 11.13C32.1511 11.3033 31.9711 11.4533 31.7577 11.58C31.5444 11.7067 31.3027 11.8033 31.0327 11.87C31.1661 11.95 31.2811 12.0617 31.3777 12.205L33.3977 15ZM39.9763 14.135L39.9713 15H35.5213V7.82H39.9713V8.685H36.5913V10.96H39.3113V11.795H36.5913V14.135H39.9763ZM48.3728 7.82V15H47.8328C47.7495 15 47.6795 14.985 47.6228 14.955C47.5695 14.925 47.5145 14.8767 47.4578 14.81L43.4028 9.565C43.4095 9.655 43.4145 9.74333 43.4178 9.83C43.4245 9.91667 43.4278 9.99833 43.4278 10.075V15H42.4928V7.82H43.0428C43.1361 7.82 43.2061 7.83167 43.2528 7.855C43.2995 7.875 43.3511 7.92333 43.4078 8L47.4728 13.25C47.4628 13.1533 47.4545 13.06 47.4478 12.97C47.4445 12.8767 47.4428 12.79 47.4428 12.71V7.82H48.3728ZM57.6141 11.41C57.6141 11.9467 57.5274 12.435 57.3541 12.875C57.1841 13.315 56.9424 13.6933 56.6291 14.01C56.3157 14.3233 55.9407 14.5667 55.5041 14.74C55.0674 14.9133 54.5824 15 54.0491 15H51.3491V7.82H54.0491C54.5824 7.82 55.0674 7.90667 55.5041 8.08C55.9407 8.25333 56.3157 8.49833 56.6291 8.815C56.9424 9.12833 57.1841 9.50667 57.3541 9.95C57.5274 10.39 57.6141 10.8767 57.6141 11.41ZM56.5241 11.41C56.5241 10.9833 56.4657 10.6017 56.3491 10.265C56.2324 9.925 56.0657 9.63833 55.8491 9.405C55.6357 9.16833 55.3757 8.98833 55.0691 8.865C54.7657 8.74167 54.4257 8.68 54.0491 8.68H52.4191V14.14H54.0491C54.4257 14.14 54.7657 14.0783 55.0691 13.955C55.3757 13.8317 55.6357 13.6533 55.8491 13.42C56.0657 13.1833 56.2324 12.8967 56.3491 12.56C56.4657 12.2233 56.5241 11.84 56.5241 11.41ZM61.2265 15H60.1565V7.82H61.2265V15ZM70.0783 7.82V15H69.5383C69.4549 15 69.3849 14.985 69.3283 14.955C69.2749 14.925 69.2199 14.8767 69.1633 14.81L65.1083 9.565C65.1149 9.655 65.1199 9.74333 65.1233 9.83C65.1299 9.91667 65.1333 9.99833 65.1333 10.075V15H64.1983V7.82H64.7483C64.8416 7.82 64.9116 7.83167 64.9583 7.855C65.0049 7.875 65.0566 7.92333 65.1133 8L69.1783 13.25C69.1683 13.1533 69.1599 13.06 69.1533 12.97C69.1499 12.8767 69.1483 12.79 69.1483 12.71V7.82H70.0783ZM78.9145 11.505V14.305C78.5512 14.565 78.1645 14.76 77.7545 14.89C77.3445 15.0167 76.8979 15.08 76.4145 15.08C75.8345 15.08 75.3095 14.99 74.8395 14.81C74.3729 14.63 73.9745 14.3783 73.6445 14.055C73.3145 13.7317 73.0595 13.345 72.8795 12.895C72.7029 12.445 72.6145 11.95 72.6145 11.41C72.6145 10.8667 72.6995 10.37 72.8695 9.92C73.0429 9.46667 73.2895 9.08 73.6095 8.76C73.9295 8.43667 74.3162 8.18667 74.7695 8.01C75.2262 7.83 75.7379 7.74 76.3045 7.74C76.5912 7.74 76.8562 7.76167 77.0995 7.805C77.3462 7.84833 77.5745 7.91 77.7845 7.99C77.9945 8.07 78.1879 8.16667 78.3645 8.28C78.5445 8.39 78.7112 8.515 78.8645 8.655L78.5595 9.135C78.5129 9.21167 78.4512 9.26 78.3745 9.28C78.2979 9.3 78.2145 9.28167 78.1245 9.225C78.0379 9.175 77.9412 9.11667 77.8345 9.05C77.7312 8.98333 77.6062 8.92167 77.4595 8.865C77.3162 8.80833 77.1479 8.76 76.9545 8.72C76.7612 8.68 76.5329 8.66 76.2695 8.66C75.8762 8.66 75.5212 8.725 75.2045 8.855C74.8879 8.98167 74.6179 9.165 74.3945 9.405C74.1712 9.645 73.9995 9.935 73.8795 10.275C73.7595 10.6117 73.6995 10.99 73.6995 11.41C73.6995 11.85 73.7629 12.245 73.8895 12.595C74.0162 12.9417 74.1945 13.2367 74.4245 13.48C74.6579 13.72 74.9395 13.9033 75.2695 14.03C75.6029 14.1567 75.9745 14.22 76.3845 14.22C76.5445 14.22 76.6929 14.2117 76.8295 14.195C76.9695 14.175 77.1029 14.1483 77.2295 14.115C77.3562 14.0817 77.4779 14.04 77.5945 13.99C77.7145 13.94 77.8329 13.885 77.9495 13.825V12.32H76.8895C76.8229 12.32 76.7679 12.3 76.7245 12.26C76.6845 12.22 76.6645 12.17 76.6645 12.11V11.505H78.9145Z" fill="#4E4B66"/>
<defs>
<filter id="filter0_di_6_5156" x="80" y="0" width="19" height="24" filterUnits="userSpaceOnUse" color-interpolation-filters="sRGB">
<feFlood flood-opacity="0" result="BackgroundImageFix"/>
<feColorMatrix in="SourceAlpha" type="matrix" values="0 0 0 0 0 0 0 0 0 0 0 0 0 0 0 0 0 0 127 0" result="hardAlpha"/>
<feOffset dx="-2" dy="1"/>
<feGaussianBlur stdDeviation="1"/>
<feComposite in2="hardAlpha" operator="out"/>
<feColorMatrix type="matrix" values="0 0 0 0 0 0 0 0 0 0 0 0 0 0 0 0 0 0 0.25 0"/>
<feBlend mode="normal" in2="BackgroundImageFix" result="effect1_dropShadow_6_5156"/>
<feBlend mode="normal" in="SourceGraphic" in2="effect1_dropShadow_6_5156" result="shape"/>
<feColorMatrix in="SourceAlpha" type="matrix" values="0 0 0 0 0 0 0 0 0 0 0 0 0 0 0 0 0 0 127 0" result="hardAlpha"/>
<feOffset dy="2"/>
<feGaussianBlur stdDeviation="2"/>
<feComposite in2="hardAlpha" operator="arithmetic" k2="-1" k3="1"/>
<feColorMatrix type="matrix" values="0 0 0 0 0.6 0 0 0 0 0.6 0 0 0 0 0.6 0 0 0 0.6 0"/>
<feBlend mode="normal" in2="shape" result="effect2_innerShadow_6_5156"/>
</filter>
<linearGradient id="paint0_linear_6_5156" x1="0" y1="11" x2="99" y2="11" gradientUnits="userSpaceOnUse">
<stop stop-color="#FEE0A9"/>
<stop offset="1" stop-color="#FECDD4"/>
</linearGradient>
</defs>
</svg>
