<svg width="258" height="281" viewBox="0 0 258 281" fill="none" xmlns="http://www.w3.org/2000/svg">
<path fill-rule="evenodd" clip-rule="evenodd" d="M193.4 166.543C193.534 166.682 192.425 167.597 192.229 167.798C180.66 179.699 162.142 185.438 141.817 182.63C116.878 179.197 100.037 160.106 94.6146 137.064C91.6442 124.426 92.1012 110.075 96.5372 97.6938C97.9193 93.8425 99.7305 90.0914 101.954 86.5187L116.076 93.0053C99.19 119.246 105.983 161.401 136.328 173.124C146.939 177.221 162.688 177.087 174.201 172.192C179.334 170.009 184.578 165.605 187.27 163.221C187.526 162.993 189.081 161.893 190.324 163.238L193.4 166.543ZM134.032 62.1198C155.075 56.2754 175.611 63.3533 189.12 77.0125L192.09 80.0156C192.129 80.0546 191.644 80.8196 189.504 83.6048C189.081 84.1574 188.356 84.8332 187.058 84.4645C186.1 84.1965 184.957 83.3036 184.115 82.8011C181.518 81.2495 179.434 80.0491 177.578 79.0836C173.393 76.9067 170.361 75.9017 165.212 74.5454C156.245 72.1897 145.612 73.2223 136.946 76.3485L134.032 62.1198Z" fill="white"/>
<path d="M130.473 88.6635L119.65 81.4404L108.081 87.3684L115.292 76.5339L109.38 64.9399L120.191 72.1686L131.771 66.235L124.549 77.0695L130.473 88.6635Z" fill="white"/>
<path d="M126.219 40.3902L115.407 33.156L103.821 39.0952L111.044 28.2549L105.12 16.6667L115.937 23.8954L127.512 17.9561L120.295 28.7964L126.219 40.3902Z" fill="white"/>
<path d="M88.8206 72.5151L78.0148 65.2975L66.4287 71.231L73.6456 60.391L67.7328 48.797L78.5386 56.0257L90.1191 50.0921L82.9022 60.9322L88.8206 72.5151Z" fill="white"/>
<path d="M188.989 231.264H188.509V276.848H188.989V231.264Z" fill="#424143"/>
<path d="M255.85 268.039L255.732 267.916L247.115 258.886V267.307V267.377H247.047H245.433H245.364V267.307V254.729V254.556L245.482 254.679L254.099 263.747V255.213V255.142H254.167H255.781H255.85V255.213V267.866V268.039ZM233.92 267.377V265.517L238.675 254.72L238.738 254.581L238.8 254.72L244.377 267.279L244.421 267.377H244.316H242.624H242.582L242.563 267.337L238.732 258.693L234.947 267.335L234.928 267.377H234.885H233.92ZM233.92 256.528L234.677 255.248L234.74 255.142H234.618H233.92V256.528ZM233.92 255.143V256.529L230.81 261.783V267.308V267.379H230.742H229.13H229.062V267.308V261.803L225.458 255.669V255.145H227.056H227.094L227.115 255.179L229.959 259.949L232.771 255.179L232.791 255.145H232.83H233.92V255.143ZM233.92 265.517L233.145 267.279L233.102 267.377H233.207H233.921V265.517H233.92ZM225.458 267.377H225.699H225.767V267.307V265.674V265.604H225.699H225.458V267.377ZM225.458 255.143V255.668L225.212 255.25L225.151 255.143H225.271H225.458ZM225.458 265.604H221.918V255.213V255.142H221.849H220.256H220.188V255.213V267.307V267.377H220.256H225.458V265.604ZM219.195 267.377H219.088H217.398H217.354L217.335 267.337L213.506 258.693L209.721 267.335L209.702 267.377H209.658H207.98H207.873L207.916 267.279L213.447 254.72L213.51 254.581L213.572 254.72L219.149 267.279L219.195 267.377ZM207.279 267.377H207.125H205.071H205.042L205.02 267.355L199.896 261.587V267.307V267.377H199.829H198.215H198.146V267.307V255.213V255.142H198.215H199.829H199.896V255.213V259.961L204.792 255.162L204.812 255.142H204.839H207.088H207.258L207.134 255.264L201.473 260.828L207.175 267.259L207.279 267.377Z" fill="#D71921"/>
<path d="M231.004 249.341L231.783 248.989C231.805 249.144 231.823 249.301 231.842 249.461C231.842 249.463 231.493 249.407 231.004 249.341Z" fill="#FFDE00"/>
<path d="M231.821 249.267L231.499 249.411C231.255 249.376 230.896 249.324 230.504 249.275L231.744 248.716C231.774 248.897 231.799 249.082 231.821 249.267Z" fill="#FFDE00"/>
<path d="M231.783 248.989L231.005 249.341C230.704 249.3 230.351 249.253 229.993 249.21L231.697 248.444C231.73 248.622 231.759 248.806 231.783 248.989Z" fill="#FFDE00"/>
<path d="M231.745 248.715L230.504 249.274C230.17 249.231 229.811 249.187 229.471 249.152L231.645 248.175C231.683 248.352 231.714 248.533 231.745 248.715Z" fill="#FFDE00"/>
<path d="M231.697 248.444L229.993 249.209C229.623 249.166 229.249 249.127 228.927 249.103L231.586 247.909C231.628 248.083 231.665 248.263 231.697 248.444Z" fill="#FFDD00"/>
<path d="M231.646 248.175L229.472 249.152C229.053 249.109 228.663 249.08 228.393 249.08H228.331L231.526 247.643C231.569 247.819 231.609 247.994 231.646 248.175Z" fill="#FFDA00"/>
<path d="M231.588 247.909L228.928 249.103C228.724 249.088 228.54 249.08 228.391 249.08C228.262 249.08 228.021 249.078 227.701 249.069L231.456 247.381C231.502 247.555 231.546 247.729 231.588 247.909Z" fill="#FFDA00"/>
<path d="M231.526 247.645L228.332 249.081C228.108 249.08 227.669 249.077 227.104 249.047L231.383 247.124C231.433 247.293 231.482 247.468 231.526 247.645Z" fill="#FFD900"/>
<path d="M231.457 247.382L227.699 249.071C227.381 249.062 226.983 249.043 226.537 249.008L231.303 246.866C231.358 247.035 231.408 247.208 231.457 247.382Z" fill="#FFD700"/>
<path d="M231.382 247.123L227.104 249.046C226.77 249.028 226.396 249 225.997 248.958L231.218 246.611C231.277 246.779 231.332 246.95 231.382 247.123Z" fill="#FFD700"/>
<path d="M231.303 246.865L226.537 249.007C226.207 248.981 225.852 248.946 225.48 248.897L231.127 246.359C231.189 246.524 231.247 246.694 231.303 246.865Z" fill="#FFD600"/>
<path d="M231.217 246.611L225.995 248.958C225.673 248.925 225.333 248.881 224.989 248.826L231.031 246.111C231.096 246.274 231.159 246.441 231.217 246.611Z" fill="#FFD600"/>
<path d="M231.127 246.359L225.48 248.898C225.168 248.857 224.846 248.806 224.521 248.745L230.932 245.863C231 246.026 231.065 246.192 231.127 246.359Z" fill="#FFD600"/>
<path d="M231.032 246.11L224.991 248.825C224.688 248.776 224.38 248.72 224.074 248.65L230.824 245.617C230.898 245.778 230.965 245.942 231.032 246.11Z" fill="#FFD300"/>
<path d="M230.932 245.865L224.522 248.745C224.231 248.69 223.94 248.625 223.65 248.551L230.715 245.377C230.79 245.535 230.861 245.698 230.932 245.865Z" fill="#FFD300"/>
<path d="M230.826 245.618L224.076 248.651C223.798 248.59 223.52 248.517 223.248 248.436L230.597 245.134C230.677 245.292 230.752 245.454 230.826 245.618Z" fill="#FFD300"/>
<path d="M230.714 245.375L223.65 248.549C223.386 248.48 223.124 248.404 222.869 248.316L230.476 244.897C230.557 245.053 230.637 245.213 230.714 245.375Z" fill="#FFD300"/>
<path d="M230.597 245.135L223.248 248.438C222.999 248.363 222.75 248.279 222.511 248.186L230.349 244.662C230.433 244.817 230.518 244.974 230.597 245.135Z" fill="#FFD300"/>
<path d="M230.475 244.896L222.868 248.315C222.628 248.233 222.397 248.142 222.174 248.041L230.215 244.427C230.305 244.58 230.39 244.736 230.475 244.896Z" fill="#FFD200"/>
<path d="M230.348 244.662L222.51 248.186C222.285 248.098 222.067 247.998 221.86 247.892L230.079 244.199C230.169 244.349 230.259 244.502 230.348 244.662Z" fill="#FFD200"/>
<path d="M230.217 244.429L222.174 248.043C221.964 247.947 221.763 247.844 221.569 247.73L229.937 243.97C230.032 244.118 230.125 244.273 230.217 244.429Z" fill="#FFD200"/>
<path d="M230.079 244.197L221.86 247.889C221.663 247.788 221.475 247.677 221.299 247.556L229.788 243.742C229.885 243.889 229.983 244.041 230.079 244.197Z" fill="#FFD200"/>
<path d="M229.936 243.968L221.569 247.728C221.386 247.619 221.215 247.503 221.054 247.374L229.637 243.517C229.738 243.664 229.838 243.814 229.936 243.968Z" fill="#FFD000"/>
<path d="M229.788 243.743L221.3 247.557C221.132 247.441 220.972 247.317 220.829 247.183L229.478 243.296C229.583 243.441 229.687 243.59 229.788 243.743Z" fill="#FFD000"/>
<path d="M229.637 243.517L221.055 247.374C220.901 247.251 220.758 247.121 220.629 246.979L229.316 243.075C229.423 243.22 229.53 243.367 229.637 243.517Z" fill="#FFD000"/>
<path d="M229.478 243.296L220.829 247.183C220.69 247.053 220.565 246.915 220.452 246.768L229.145 242.862C229.257 243.002 229.369 243.146 229.478 243.296Z" fill="#FFCE01"/>
<path d="M229.315 243.078L220.628 246.982C220.504 246.846 220.393 246.7 220.299 246.545L228.972 242.648C229.087 242.786 229.201 242.929 229.315 243.078Z" fill="#FFCE01"/>
<path d="M229.146 242.861L220.451 246.767C220.343 246.623 220.248 246.47 220.169 246.307L228.793 242.433C228.911 242.571 229.028 242.714 229.146 242.861Z" fill="#FFCE01"/>
<path d="M228.974 242.647L220.301 246.545C220.208 246.394 220.13 246.234 220.068 246.063L228.61 242.225C228.73 242.36 228.852 242.5 228.974 242.647Z" fill="#FFCE01"/>
<path d="M228.794 242.435L220.17 246.309C220.095 246.15 220.034 245.984 219.988 245.805L228.419 242.017C228.543 242.15 228.668 242.289 228.794 242.435Z" fill="#FDCA03"/>
<path d="M228.607 242.225L220.067 246.063C220.005 245.897 219.962 245.721 219.935 245.538L228.223 241.813C228.35 241.943 228.479 242.08 228.607 242.225Z" fill="#F4C107"/>
<path d="M228.419 242.017L219.99 245.806C219.946 245.632 219.919 245.449 219.91 245.255L228.02 241.611C228.152 241.739 228.284 241.875 228.419 242.017Z" fill="#EFBD09"/>
<path d="M228.222 241.813L219.937 245.537C219.918 245.405 219.907 245.27 219.907 245.127L219.996 244.925L227.814 241.41C227.948 241.538 228.084 241.67 228.222 241.813Z" fill="#E8B60C"/>
<path d="M228.023 241.61L219.91 245.254C219.909 245.212 219.907 245.17 219.907 245.126L220.156 244.558L227.6 241.211C227.738 241.337 227.879 241.471 228.023 241.61Z" fill="#E4B20D"/>
<path d="M227.814 241.411L219.996 244.925L220.318 244.195L227.384 241.02C227.522 241.142 227.667 241.272 227.814 241.411Z" fill="#DEAB0E"/>
<path d="M227.602 241.213L220.158 244.56L220.479 243.83L227.159 240.828C227.301 240.947 227.45 241.075 227.602 241.213Z" fill="#D9A60E"/>
<path d="M227.384 241.02L220.317 244.195L220.639 243.465L226.925 240.64C227.072 240.755 227.224 240.882 227.384 241.02Z" fill="#D3A10D"/>
<path d="M227.16 240.829L220.479 243.831L220.801 243.101L226.689 240.454C226.835 240.565 226.993 240.69 227.16 240.829Z" fill="#CC9B0D"/>
<path d="M226.926 240.64L220.64 243.465L220.959 242.735L226.441 240.273C226.587 240.379 226.75 240.501 226.926 240.64Z" fill="#C1910C"/>
<path d="M226.686 240.455L220.798 243.102L221.119 242.373L226.184 240.097C226.327 240.192 226.497 240.312 226.686 240.455Z" fill="#AF8009"/>
<path d="M226.44 240.274L220.961 242.736L221.281 242.007L225.921 239.923C226.048 240.003 226.227 240.119 226.44 240.274Z" fill="#9E7104"/>
<path d="M226.185 240.096L221.12 242.372L221.432 241.663L225.691 239.785C225.691 239.787 225.878 239.889 226.185 240.096Z" fill="#926600"/>
<path d="M225.922 239.923L221.282 242.007L221.433 241.663L225.693 239.785C225.693 239.787 225.776 239.831 225.922 239.923Z" fill="#8A5E00"/>
<path d="M231.604 232.858V231.306L231.845 231.264C231.795 231.82 231.712 232.35 231.604 232.858Z" fill="#FFDE00"/>
<path d="M231.365 233.801V231.347L231.842 231.264C231.761 232.173 231.595 233.017 231.365 233.801Z" fill="#FFDE00"/>
<path d="M231.603 231.306V232.858C231.478 233.445 231.317 234.002 231.125 234.531V231.39L231.603 231.306Z" fill="#FFDE00"/>
<path d="M231.366 231.346V233.8C231.23 234.266 231.07 234.71 230.89 235.136V231.43L231.366 231.346Z" fill="#FFDE00"/>
<path d="M231.126 231.388V234.529C230.985 234.923 230.825 235.3 230.651 235.662V231.472L231.126 231.388Z" fill="#FFDE00"/>
<path d="M230.889 231.43V235.136C230.743 235.481 230.583 235.814 230.412 236.134V231.514L230.889 231.43Z" fill="#FFDD00"/>
<path d="M230.651 231.473V235.664C230.502 235.973 230.342 236.271 230.174 236.558V231.555L230.651 231.473Z" fill="#FFDD00"/>
<path d="M230.413 231.513V236.132C230.263 236.413 230.103 236.686 229.937 236.947V231.595L230.413 231.513Z" fill="#FFDD00"/>
<path d="M230.175 231.553V236.556C230.022 236.814 229.863 237.066 229.698 237.307V231.637L230.175 231.553Z" fill="#FFDA00"/>
<path d="M229.936 231.596V236.948C229.783 237.19 229.626 237.421 229.459 237.646V231.679L229.936 231.596Z" fill="#FFDA00"/>
<path d="M229.696 231.636V237.306C229.542 237.532 229.384 237.749 229.22 237.959V231.718L229.696 231.636Z" fill="#FFDA00"/>
<path d="M229.458 231.678V237.647C229.304 237.858 229.144 238.061 228.98 238.261V231.762L229.458 231.678Z" fill="#FFD900"/>
<path d="M229.219 231.72V237.962C229.065 238.161 228.904 238.355 228.741 238.541V231.801L229.219 231.72Z" fill="#FFD900"/>
<path d="M228.98 231.762V238.26C228.825 238.45 228.666 238.631 228.504 238.808V231.843L228.98 231.762Z" fill="#FFD900"/>
<path d="M228.742 231.803V238.543C228.587 238.723 228.429 238.897 228.268 239.065V231.885L228.742 231.803Z" fill="#FFD700"/>
<path d="M228.505 231.843V238.808C228.349 238.98 228.19 239.146 228.028 239.306V231.925L228.505 231.843Z" fill="#FFD700"/>
<path d="M228.269 231.884V239.064C228.112 239.228 227.951 239.385 227.791 239.539V231.967L227.868 231.953L228.269 231.884Z" fill="#FFD700"/>
<path d="M228.029 231.926V239.307C227.871 239.464 227.712 239.615 227.552 239.763V231.997C227.676 231.982 227.782 231.969 227.867 231.953L228.029 231.926Z" fill="#FFD600"/>
<path d="M227.791 231.966V239.539C227.635 239.688 227.475 239.835 227.314 239.975V232.021C227.503 232.003 227.664 231.985 227.791 231.966Z" fill="#FFD600"/>
<path d="M227.551 231.997V239.761C227.393 239.907 227.234 240.047 227.074 240.182V232.046C227.252 232.029 227.414 232.013 227.551 231.997Z" fill="#FFD600"/>
<path d="M227.313 232.021V239.975C227.155 240.114 226.996 240.249 226.836 240.38V232.069L227.313 232.021Z" fill="#FFD300"/>
<path d="M227.074 232.045V240.181C226.914 240.316 226.756 240.445 226.596 240.57V232.092L227.074 232.045Z" fill="#FFD300"/>
<path d="M226.836 232.069V240.381C226.676 240.51 226.519 240.634 226.36 240.756V232.119C226.526 232.1 226.685 232.085 226.836 232.069Z" fill="#FFD300"/>
<path d="M226.596 232.095V240.57C226.438 240.696 226.28 240.817 226.121 240.933V232.143C226.286 232.126 226.446 232.109 226.596 232.095Z" fill="#FFD200"/>
<path d="M226.361 232.118V240.755C226.201 240.877 226.042 240.994 225.884 241.108V232.173C226.048 232.152 226.206 232.135 226.361 232.118Z" fill="#FFD200"/>
<path d="M226.122 232.146V240.935C225.962 241.053 225.803 241.166 225.646 241.274V232.204C225.808 232.183 225.968 232.163 226.122 232.146Z" fill="#FFD200"/>
<path d="M225.883 232.172V241.107C225.722 241.221 225.564 241.329 225.406 241.436V232.234C225.569 232.212 225.729 232.192 225.883 232.172Z" fill="#FFD200"/>
<path d="M225.645 232.203V241.274C225.485 241.385 225.325 241.492 225.167 241.594V232.27C225.33 232.245 225.488 232.223 225.645 232.203Z" fill="#FFD000"/>
<path d="M225.405 232.236V241.438C225.245 241.545 225.085 241.649 224.928 241.749V232.308C225.089 232.281 225.249 232.258 225.405 232.236Z" fill="#FFD000"/>
<path d="M225.167 232.269V241.593C225.006 241.698 224.847 241.799 224.69 241.894V232.345C224.852 232.318 225.009 232.293 225.167 232.269Z" fill="#FFCE01"/>
<path d="M224.928 232.308V241.748C224.766 241.85 224.609 241.947 224.451 242.042V232.39C224.611 232.36 224.771 232.331 224.928 232.308Z" fill="#FFCE01"/>
<path d="M224.691 232.347V241.896C224.53 241.995 224.371 242.09 224.214 242.182V232.436C224.373 232.404 224.534 232.374 224.691 232.347Z" fill="#FFCE01"/>
<path d="M224.452 232.39V242.04C224.29 242.137 224.131 242.231 223.976 242.319V232.486C224.134 232.451 224.294 232.42 224.452 232.39Z" fill="#FFCE01"/>
<path d="M224.215 232.436V242.181C224.051 242.277 223.892 242.368 223.738 242.454V232.539C223.897 232.503 224.054 232.468 224.215 232.436Z" fill="#FCC806"/>
<path d="M223.976 232.485V242.319C223.812 242.412 223.653 242.501 223.5 242.585V232.598C223.658 232.557 223.817 232.521 223.976 232.485Z" fill="#F8C408"/>
<path d="M223.74 232.539V242.454C223.576 242.544 223.418 242.632 223.263 242.715V232.662C223.419 232.617 223.58 232.578 223.74 232.539Z" fill="#F3BD0C"/>
<path d="M223.499 232.598V242.585C223.333 242.674 223.174 242.76 223.021 242.84V232.731C223.178 232.685 223.337 232.64 223.499 232.598Z" fill="#EEB50F"/>
<path d="M223.26 232.661V242.714C223.095 242.801 222.934 242.887 222.783 242.964V232.805C222.94 232.754 223.098 232.707 223.26 232.661Z" fill="#ECB110"/>
<path d="M223.02 232.731V242.841C222.854 242.929 222.695 243.011 222.544 243.087V232.888C222.701 232.833 222.859 232.781 223.02 232.731Z" fill="#E7AC11"/>
<path d="M222.784 232.809V242.967C222.615 243.055 222.455 243.136 222.307 243.214V232.982C222.462 232.92 222.623 232.862 222.784 232.809Z" fill="#E2A612"/>
<path d="M222.545 232.888V243.087L222.091 243.321L222.067 243.332V233.078C222.222 233.01 222.382 232.947 222.545 232.888Z" fill="#DEA013"/>
<path d="M222.305 232.978V243.211L222.088 243.321C221.998 243.367 221.911 243.414 221.829 243.462V233.187C221.983 233.114 222.142 233.044 222.305 232.978Z" fill="#D99914"/>
<path d="M222.067 233.078V243.332C221.898 243.42 221.738 243.514 221.592 243.612V233.311C221.743 233.229 221.903 233.149 222.067 233.078Z" fill="#D79514"/>
<path d="M221.83 233.19V243.466C221.659 243.567 221.5 243.674 221.354 243.782V233.451C221.505 233.357 221.665 233.272 221.83 233.19Z" fill="#D29014"/>
<path d="M221.594 233.31V243.61C221.419 243.727 221.26 243.848 221.118 243.968V233.606C221.267 233.5 221.427 233.403 221.594 233.31Z" fill="#CD8A14"/>
<path d="M221.351 233.449V243.779C221.174 243.913 221.015 244.049 220.875 244.186V233.791C221.023 233.668 221.183 233.554 221.351 233.449Z" fill="#CB8614"/>
<path d="M221.116 233.607V243.97C220.933 244.123 220.774 244.279 220.638 244.43V234.013C220.78 233.865 220.94 233.732 221.116 233.607Z" fill="#C78014"/>
<path d="M220.876 233.791V244.186C220.686 244.369 220.529 244.548 220.398 244.713V234.291C220.535 234.11 220.695 233.943 220.876 233.791Z" fill="#C27D13"/>
<path d="M220.638 234.012V244.429C220.432 244.657 220.275 244.87 220.163 245.045V234.679C220.279 234.435 220.443 234.212 220.638 234.012Z" fill="#C07913"/>
<path d="M220.399 234.291V244.711C220.063 245.14 219.924 245.469 219.924 245.469V235.716C219.927 235.157 220.103 234.688 220.399 234.291Z" fill="#BB7412"/>
<path d="M220.165 234.679V245.045C219.996 245.299 219.924 245.469 219.924 245.469V235.716C219.927 235.329 220.011 234.987 220.165 234.679Z" fill="#B26910"/>
<path d="M162.643 275.256V274.725H163.439L162.867 273.165C162.794 272.972 162.72 272.736 162.643 272.455V271.795H162.886L164.824 276.858H164.231L163.617 275.256H162.643ZM172.289 276.858H171.635L168.943 272.627H168.916C168.951 273.124 168.971 273.579 168.971 273.992V276.858H168.443V271.816H169.088L171.773 276.03H171.8C171.797 275.969 171.786 275.769 171.772 275.433C171.755 275.094 171.751 274.856 171.754 274.709V271.816H172.29V276.858H172.289ZM177.355 274.337L178.666 271.816H179.285L177.644 274.902V276.856H177.063V274.929L175.423 271.814H176.05L177.355 274.337ZM162.643 271.795V272.455L162.638 272.437C162.588 272.657 162.518 272.901 162.425 273.165L161.847 274.725H162.643V275.256H161.644L161.037 276.858H160.457L162.404 271.795H162.643ZM155.866 274.854V274.344C156.14 274.308 156.354 274.232 156.504 274.12C156.73 273.954 156.845 273.685 156.845 273.315C156.845 272.982 156.738 272.735 156.526 272.571C156.368 272.45 156.149 272.375 155.866 272.343V271.826C156.912 271.896 157.437 272.382 157.437 273.285C157.437 273.795 157.267 274.187 156.928 274.461C156.662 274.676 156.308 274.807 155.866 274.854ZM155.866 271.826V272.343C155.761 272.331 155.648 272.325 155.527 272.325H154.887V274.373H155.401C155.571 274.373 155.725 274.364 155.865 274.346V274.856C155.738 274.87 155.606 274.875 155.464 274.875H154.885V276.86H154.312V271.818H155.588C155.685 271.816 155.777 271.818 155.866 271.826ZM139.943 276.928V276.413H139.947C140.494 276.413 140.908 276.237 141.186 275.887C141.464 275.533 141.603 275.016 141.603 274.331C141.603 273.651 141.465 273.138 141.187 272.786C140.909 272.436 140.5 272.261 139.955 272.261H139.943V271.738H139.955C140.664 271.738 141.215 271.969 141.612 272.428C142.011 272.889 142.21 273.522 142.21 274.331C142.21 275.138 142.011 275.775 141.612 276.235C141.213 276.699 140.658 276.927 139.947 276.927H139.943V276.928ZM147.601 276.858L145.93 272.388H145.902C145.934 272.744 145.951 273.165 145.951 273.651V276.858H145.422V271.816H146.284L147.844 275.975H147.871L149.445 271.816H150.302V276.858H149.729V273.609C149.729 273.237 149.745 272.832 149.777 272.395H149.75L148.063 276.856H147.601V276.858ZM139.943 271.738V272.261C139.403 272.263 138.992 272.44 138.709 272.791C138.425 273.144 138.284 273.657 138.284 274.331C138.284 275.013 138.425 275.531 138.709 275.885C138.994 276.237 139.404 276.413 139.943 276.413V276.928C139.22 276.928 138.662 276.702 138.27 276.248C137.874 275.793 137.677 275.152 137.677 274.325C137.677 273.504 137.874 272.868 138.271 272.417C138.665 271.968 139.221 271.741 139.943 271.738ZM115.912 274.761V274.251C116.22 274.228 116.45 274.15 116.607 274.01C116.796 273.848 116.891 273.6 116.891 273.272C116.891 272.938 116.796 272.698 116.603 272.55C116.448 272.432 116.218 272.361 115.912 272.337V271.818C116.417 271.842 116.796 271.96 117.051 272.17C117.339 272.407 117.484 272.763 117.484 273.237C117.484 273.905 117.153 274.356 116.493 274.59L117.831 276.855H117.153L115.961 274.759H115.912V274.761ZM123.796 275.52C123.796 275.963 123.639 276.31 123.325 276.557C123.01 276.806 122.584 276.928 122.045 276.928C121.461 276.928 121.012 276.851 120.698 276.698V276.13C120.899 276.218 121.119 276.287 121.357 276.338C121.595 276.388 121.831 276.413 122.065 276.413C122.447 276.413 122.734 276.34 122.929 276.19C123.121 276.043 123.22 275.838 123.22 275.573C123.22 275.398 123.184 275.256 123.116 275.144C123.047 275.033 122.931 274.93 122.772 274.835C122.611 274.74 122.367 274.635 122.039 274.515C121.582 274.347 121.254 274.148 121.056 273.92C120.861 273.689 120.762 273.389 120.762 273.018C120.762 272.628 120.904 272.319 121.189 272.091C121.476 271.86 121.854 271.745 122.321 271.745C122.812 271.745 123.261 271.837 123.674 272.02L123.495 272.531C123.088 272.354 122.692 272.269 122.308 272.269C122.006 272.269 121.767 272.336 121.598 272.467C121.425 272.603 121.34 272.786 121.34 273.026C121.34 273.2 121.372 273.343 121.434 273.454C121.498 273.566 121.604 273.669 121.753 273.761C121.903 273.854 122.132 273.955 122.439 274.069C122.955 274.258 123.311 274.46 123.506 274.676C123.699 274.892 123.796 275.174 123.796 275.52ZM133.232 272.269C132.692 272.269 132.264 272.453 131.949 272.821C131.638 273.191 131.48 273.695 131.48 274.337C131.48 274.997 131.631 275.507 131.934 275.865C132.236 276.226 132.667 276.405 133.227 276.405C133.57 276.405 133.962 276.342 134.402 276.216V276.73C134.059 276.864 133.639 276.927 133.14 276.927C132.414 276.927 131.854 276.703 131.461 276.252C131.064 275.802 130.868 275.161 130.868 274.331C130.868 273.811 130.963 273.356 131.154 272.964C131.341 272.573 131.617 272.273 131.975 272.062C132.333 271.85 132.754 271.745 133.239 271.745C133.757 271.745 134.207 271.842 134.594 272.034L134.352 272.538C133.977 272.357 133.606 272.269 133.232 272.269ZM115.912 271.821V272.34C115.837 272.336 115.761 272.332 115.679 272.332H114.935V274.259H115.719C115.787 274.259 115.851 274.258 115.912 274.253V274.763H114.935V276.859H114.362V271.817H115.713C115.78 271.816 115.848 271.817 115.912 271.821ZM50.5824 275.256V274.725H51.3802L50.8065 273.165C50.7348 272.972 50.6593 272.736 50.5837 272.455V271.795H50.827L52.7645 276.858H52.1716L51.5582 275.256H50.5824ZM59.9536 276.858H59.3006L56.6088 272.627H56.5819C56.6164 273.124 56.6357 273.579 56.6357 273.992V276.858H56.1068V271.816H56.7522L59.4376 276.03H59.4645C59.4593 275.969 59.4503 275.769 59.4338 275.433C59.4184 275.094 59.4119 274.856 59.4171 274.709V271.816H59.9524V276.858H59.9536ZM67.8753 276.862C67.6639 276.862 67.4988 276.83 67.3759 276.768V276.268C67.5359 276.315 67.7011 276.34 67.8753 276.34C68.0968 276.34 68.2671 276.27 68.3824 276.131C68.4977 275.995 68.5553 275.794 68.5553 275.535V271.817H69.1277V275.485C69.1277 275.921 69.0188 276.262 68.8024 276.501C68.5886 276.741 68.2786 276.862 67.8753 276.862ZM75.916 276.858H73.1717V271.816H75.916V272.339H73.7441V273.962H75.7853V274.478H73.7441V276.334H75.916V276.858ZM83.7659 276.858H83.1999L82.2061 273.482C82.1588 273.332 82.1063 273.144 82.0474 272.917C81.9884 272.687 81.959 272.551 81.9565 272.506C81.9065 272.809 81.8284 273.141 81.7196 273.503L80.7565 276.859H80.1918L78.8818 271.817H79.4888L80.2661 274.932C80.3737 275.368 80.4531 275.764 80.503 276.117C80.5619 275.697 80.6541 275.286 80.7719 274.883L81.6556 271.817H82.2612L83.1884 274.911C83.296 275.266 83.3869 275.669 83.4611 276.117C83.5047 275.792 83.5854 275.393 83.7032 274.924L84.4791 271.817H85.0849L83.7659 276.858ZM91.402 276.858H88.6577V271.816H91.402V272.339H89.2301V273.962H91.2713V274.478H89.2301V276.334H91.402V276.858ZM94.9528 276.858V271.816H95.5251V276.328H97.6957V276.856H94.9528V276.858ZM101.406 276.858V271.816H101.978V276.328H104.15V276.856H101.406V276.858ZM110.673 276.858H107.928V271.816H110.673V272.339H108.5V273.962H110.542V274.478H108.5V276.334H110.673V276.858ZM50.5824 271.795V272.455L50.5773 272.437C50.5286 272.657 50.4581 272.901 50.3647 273.165L49.7846 274.725H50.5824V275.256H49.5836L48.9778 276.858H48.399L50.3468 271.795H50.5824ZM30.3608 275.256V274.725H31.1586L30.585 273.165C30.512 272.972 30.4377 272.736 30.3621 272.455V271.795H30.6054L32.543 276.858H31.9487L31.3354 275.256H30.3608ZM35.9532 276.858V271.816H36.5256V276.328H38.6974V276.856H35.9532V276.858ZM43.7992 274.337L45.1118 271.816H45.7315L44.0886 274.902V276.856H43.5085V274.929L41.8681 271.814H42.4956L43.7992 274.337ZM14.0861 276.858L13.4726 275.256H12.4982V274.725H13.2946L12.7222 273.165C12.6492 272.972 12.575 272.736 12.4982 272.455V271.795H12.7414L14.6789 276.858H14.0861ZM30.3608 271.795V272.455L30.3558 272.437C30.3058 272.657 30.2353 272.901 30.1432 273.165L29.5631 274.725H30.3608V275.256H29.3608L28.7538 276.858H28.1749L30.1227 271.795H30.3608ZM25.6496 276.858H24.976L23.1794 274.414L22.6633 274.882V276.858H22.0897V271.816H22.6621V274.316L24.8967 271.816H25.5754L23.5943 274.006L25.6496 276.858ZM12.4982 275.256H11.498L10.8923 276.858H10.3135L12.2612 271.795H12.4982V272.455L12.493 272.437C12.4444 272.657 12.3739 272.901 12.2804 273.165L11.7016 274.725H12.4982V275.256Z" fill="white"/>
<path d="M39.462 258.533L36.3758 266.356C36.3272 266.492 36.2413 266.613 36.121 266.718C35.9994 266.824 35.8482 266.875 35.6689 266.875H34.2168L44.9762 239.954H46.8842L57.6461 266.875H56.1773C56.0083 266.875 55.8649 266.829 55.7509 266.737C55.6356 266.643 55.5486 266.519 55.4859 266.356L53.127 260.412L52.3817 258.533L51.8208 257.104L46.4488 243.502C46.363 243.292 46.2785 243.047 46.1953 242.766C46.1107 242.488 46.0198 242.195 45.9212 241.885C45.838 242.195 45.7522 242.486 45.6676 242.757C45.5831 243.031 45.4999 243.285 45.4154 243.52L40.0421 257.103L39.462 258.533Z" fill="white"/>
<path d="M61.7852 266.875V239.954H62.7123C62.8813 239.954 63.0171 239.978 63.1208 240.018C63.2233 240.063 63.3296 240.156 63.4397 240.306L80.4624 263.644C80.4265 263.259 80.4086 262.894 80.4086 262.546V239.954H82.0605V266.875H81.1526C80.8644 266.875 80.6352 266.751 80.4662 266.504L63.3846 243.129C63.4205 243.514 63.4409 243.873 63.4409 244.206V266.875H61.7852Z" fill="white"/>
<path d="M118.123 266.875V239.954H133.873V241.568H120.009V252.422H131.554V254.037H120.009V265.257H133.873V266.875H118.123Z" fill="white"/>
<path d="M148.538 253.177C149.144 253.107 149.709 252.991 150.235 252.829C151.162 252.545 151.941 252.136 152.575 251.601C153.21 251.07 153.699 250.428 154.038 249.678C154.375 248.928 154.546 248.084 154.546 247.144C154.546 245.22 153.932 243.801 152.705 242.878C151.695 242.119 150.304 241.672 148.538 241.538V239.986C150.996 240.123 152.875 240.715 154.175 241.756C155.68 242.956 156.434 244.716 156.434 247.031C156.434 248.057 156.259 248.995 155.913 249.84C155.568 250.688 155.065 251.432 154.41 252.076C153.751 252.715 152.965 253.245 152.046 253.65C151.131 254.058 150.087 254.324 148.918 254.447C149.224 254.633 149.493 254.885 149.723 255.207L158.806 266.873H157.155C156.961 266.873 156.794 266.836 156.648 266.761C156.505 266.685 156.363 266.557 156.233 266.37L148.54 256.432V253.177H148.538ZM142.532 253.255H147.105C147.605 253.255 148.083 253.228 148.538 253.175V256.433L147.776 255.447C147.57 255.164 147.346 254.965 147.105 254.853C146.864 254.742 146.488 254.686 145.978 254.686H142.532V266.874H140.644V239.954H147.356C147.764 239.954 148.16 239.966 148.538 239.987V241.539C148.156 241.51 147.758 241.496 147.34 241.496H142.53V253.255H142.532Z" fill="white"/>
<path d="M163.531 266.875V239.954H179.286V241.568H165.421V252.422H176.959V254.037H165.421V265.257H179.286V266.875H163.531Z" fill="white"/>
<path d="M111.073 247.812C110.463 246.153 109.609 244.735 108.509 243.567C107.411 242.394 106.092 241.504 104.559 240.882C103.026 240.261 101.325 239.954 99.4513 239.954H89.8838V245.39H91.7713V241.569H99.4395C101.025 241.569 102.472 241.835 103.781 242.366C105.088 242.897 106.203 243.67 107.124 244.682C108.045 245.695 108.757 246.934 109.267 248.396C109.775 249.859 110.03 251.53 110.03 253.404C110.03 255.294 109.775 256.971 109.267 258.433C108.757 259.894 108.044 261.134 107.124 262.148C106.203 263.159 105.089 263.932 103.781 264.463C102.472 264.993 101.025 265.259 99.4395 265.259H91.7713V261.442H89.8838V266.876H99.4513C101.325 266.876 103.026 266.567 104.559 265.947C106.092 265.33 107.411 264.433 108.509 263.261C109.609 262.091 110.464 260.677 111.073 259.018C111.684 257.357 111.989 255.488 111.989 253.405C111.989 251.336 111.683 249.471 111.073 247.812Z" fill="white"/>
<path fill-rule="evenodd" clip-rule="evenodd" d="M31.8901 263.271C31.9208 263.304 31.666 263.519 31.6212 263.566C28.9628 266.361 24.7074 267.709 20.0371 267.049C14.3066 266.243 10.4367 261.76 9.19067 256.348C8.50814 253.38 8.61314 250.009 9.63247 247.102C9.95006 246.197 10.3662 245.316 10.8772 244.477L14.1222 246C10.242 252.163 11.8031 262.064 18.7758 264.817C21.214 265.779 24.8329 265.748 27.4786 264.598C28.658 264.085 29.863 263.051 30.4815 262.491C30.5404 262.438 30.8977 262.179 31.1833 262.495L31.8901 263.271ZM18.2481 238.747C23.0836 237.374 27.8026 239.036 30.9066 242.244L31.5892 242.95C31.5982 242.959 31.4867 243.139 30.995 243.793C30.8977 243.922 30.7312 244.081 30.4328 243.995C30.2126 243.932 29.9501 243.722 29.7567 243.604C29.1599 243.24 28.6811 242.958 28.2545 242.731C27.2928 242.22 26.5962 241.984 25.413 241.665C23.3525 241.112 20.9092 241.354 18.9179 242.089L18.2481 238.747Z" fill="white"/>
<path d="M17.4305 244.981L14.9436 243.284L12.2852 244.676L13.9422 242.132L12.5835 239.409L15.0678 241.107L17.7289 239.713L16.0693 242.258L17.4305 244.981Z" fill="white"/>
<path d="M16.4542 233.643L13.9699 231.944L11.3076 233.339L12.9672 230.793L11.606 228.071L14.0916 229.769L16.7513 228.374L15.093 230.92L16.4542 233.643Z" fill="white"/>
<path d="M7.85921 241.188L5.37618 239.493L2.71387 240.887L4.37221 238.341L3.01352 235.618L5.49655 237.315L8.15759 235.922L6.49924 238.468L7.85921 241.188Z" fill="white"/>
<path d="M256.268 275.521C256.268 275.926 256.125 276.242 255.837 276.469C255.55 276.694 255.163 276.809 254.671 276.809C254.14 276.809 253.729 276.736 253.442 276.597V276.081C253.628 276.16 253.827 276.221 254.045 276.268C254.262 276.316 254.477 276.338 254.69 276.338C255.038 276.338 255.301 276.27 255.476 276.136C255.652 276.002 255.74 275.814 255.74 275.574C255.74 275.414 255.708 275.283 255.646 275.182C255.584 275.081 255.479 274.986 255.333 274.9C255.188 274.815 254.964 274.715 254.666 274.607C254.249 274.454 253.949 274.272 253.77 274.063C253.593 273.855 253.501 273.581 253.501 273.241C253.501 272.887 253.633 272.607 253.892 272.396C254.153 272.187 254.496 272.082 254.925 272.082C255.371 272.082 255.782 272.165 256.156 272.333L255.992 272.797C255.624 272.638 255.263 272.557 254.911 272.557C254.635 272.557 254.419 272.619 254.264 272.739C254.107 272.862 254.029 273.03 254.029 273.248C254.029 273.407 254.059 273.538 254.115 273.639C254.172 273.741 254.269 273.835 254.406 273.92C254.543 274.004 254.752 274.099 255.031 274.201C255.502 274.374 255.825 274.556 256.002 274.754C256.178 274.951 256.268 275.206 256.268 275.521Z" fill="white"/>
<path d="M247.646 274.367C247.925 274.346 248.137 274.273 248.28 274.149C248.453 273.999 248.537 273.775 248.537 273.475C248.537 273.171 248.45 272.952 248.274 272.818C248.135 272.71 247.925 272.643 247.646 272.625V272.151C248.106 272.174 248.45 272.28 248.685 272.47C248.945 272.687 249.079 273.012 249.079 273.445C249.079 274.053 248.78 274.463 248.178 274.677L249.396 276.742H248.78L247.692 274.83H247.647V274.367H247.646ZM246.753 274.374H247.468C247.531 274.374 247.59 274.373 247.646 274.367V274.831H246.755V276.743H246.233V272.147H247.464C247.528 272.147 247.588 272.148 247.647 272.151V272.625C247.581 272.619 247.509 272.616 247.435 272.616H246.756V274.374H246.753Z" fill="white"/>
<path d="M242.025 276.741H239.524V272.145H242.025V272.622H240.045V274.103H241.905V274.571H240.045V276.265H242.025V276.741Z" fill="white"/>
<path d="M232.481 276.741V272.145H233.004V276.259H234.983V276.741H232.481Z" fill="white"/>
<path d="M225.44 276.741V272.145H225.962V276.259H227.942V276.741H225.44Z" fill="white"/>
<path d="M220.902 276.741H218.398V272.145H220.902V272.622H218.921V274.103H220.782V274.571H218.921V276.265H220.902V276.741Z" fill="white"/>
<path d="M214.236 276.741H213.72L212.814 273.663C212.772 273.527 212.724 273.356 212.671 273.148C212.617 272.94 212.59 272.814 212.588 272.773C212.544 273.051 212.471 273.352 212.372 273.683L211.494 276.74H210.978L209.783 272.144H210.337L211.046 274.983C211.144 275.381 211.217 275.741 211.262 276.065C211.315 275.681 211.399 275.306 211.506 274.939L212.311 272.144H212.865L213.708 274.964C213.807 275.287 213.891 275.654 213.958 276.065C213.996 275.766 214.069 275.404 214.178 274.977L214.886 272.144H215.438L214.236 276.741Z" fill="white"/>
<path d="M206.82 276.741H204.319V272.145H206.82V272.622H204.84V274.103H206.699V274.571H204.84V276.265H206.82V276.741Z" fill="white"/>
<path d="M198.181 276.793C197.989 276.793 197.838 276.766 197.729 276.707V276.252C197.873 276.294 198.024 276.316 198.181 276.316C198.384 276.316 198.539 276.252 198.644 276.126C198.749 276.002 198.803 275.821 198.803 275.583V272.145H199.324V275.538C199.324 275.936 199.224 276.245 199.028 276.464C198.832 276.683 198.551 276.793 198.181 276.793Z" fill="white"/>
</svg>
