<svg width="24" height="24" viewBox="0 0 24 24" fill="none" xmlns="http://www.w3.org/2000/svg">
<path d="M20.6603 17C19.7827 18.52 18.5204 19.7823 17.0005 20.66C15.4805 21.5377 13.7562 21.9998 12.001 22C10.2459 22.0002 8.52154 21.5384 7.00136 20.661C5.48119 19.7837 4.21871 18.5217 3.3408 17.0018L12 12L20.6603 17Z" fill="#D6D6D6"/>
<path d="M3.33975 17C2.46215 15.48 2.00009 13.7557 2 12.0005C1.99991 10.2453 2.46178 8.52105 3.33922 7.00092C4.21665 5.48079 5.47873 4.21837 6.99862 3.34054C8.51852 2.46271 10.2427 2.00037 11.9979 2L12 12L3.33975 17Z" fill="#FFDD7D"/>
<path d="M12 2C13.7552 2 15.4795 2.46197 16.9995 3.33948C18.5196 4.217 19.782 5.47915 20.6597 6.99909C21.5375 8.51904 21.9997 10.2432 22 11.9984C22.0003 13.7536 21.5386 15.478 20.6613 16.9982L12 12V2Z" fill="#F4BD9E"/>
</svg>
