<svg width="28" height="28" viewBox="0 0 28 28" fill="none" xmlns="http://www.w3.org/2000/svg">
<path d="M6.06665 17.3833V7.46659H23.1V17.3833H24.85V7.46659C24.8203 7.02297 24.623 6.60727 24.2979 6.30391C23.9729 6.00054 23.5446 5.83227 23.1 5.83326H6.06665C5.62205 5.83227 5.19373 6.00054 4.8687 6.30391C4.54367 6.60727 4.34629 7.02297 4.31665 7.46659V17.3833H6.06665Z" fill="#4E4B66"/>
<path d="M2.33337 18.6665V18.8998C2.33337 19.5806 2.60379 20.2334 3.08513 20.7147C3.56648 21.1961 4.21932 21.4665 4.90004 21.4665H24.2667C24.9474 21.4665 25.6003 21.1961 26.0816 20.7147C26.563 20.2334 26.8334 19.5806 26.8334 18.8998V18.6665H2.33337ZM13.0667 20.1832V19.9498L13.3 19.7165H15.8667L16.1 19.9498V20.1832L15.8667 20.4165H13.3L13.0667 20.1832Z" fill="#4E4B66"/>
<path d="M17.9667 11.6668V11.2001L14.5834 8.40015L11.2001 11.2001V11.6668H17.9667Z" fill="#4E4B66"/>
<path d="M12.7167 12.0168C12.4834 12.0168 12.2501 12.1335 12.2501 12.3668V14.2335C12.0167 14.2335 12.0167 14.3502 12.0167 14.5835C12.0167 14.8168 12.0167 15.0502 12.2501 15.0502H13.1834C13.4167 15.0502 13.4167 14.8168 13.4167 14.5835C13.4167 14.3502 13.4167 14.2335 13.1834 14.2335H13.0667V12.3668C13.0667 12.274 13.0298 12.185 12.9642 12.1194C12.8986 12.0537 12.8095 12.0168 12.7167 12.0168Z" fill="#4E4B66"/>
<path d="M14.5834 12.0168C14.4906 12.0168 14.4016 12.0537 14.3359 12.1194C14.2703 12.185 14.2334 12.274 14.2334 12.3668V14.2335H14.1168C13.8834 14.2335 13.8834 14.3502 13.8834 14.5835C13.8834 14.8168 13.8834 15.0502 14.1168 15.0502H15.0501C15.2834 15.0502 15.2834 14.8168 15.2834 14.5835C15.2834 14.3502 15.2834 14.2335 15.0501 14.2335H14.9334V12.3668C14.9334 12.274 14.8965 12.185 14.8309 12.1194C14.7653 12.0537 14.6762 12.0168 14.5834 12.0168Z" fill="#4E4B66"/>
<path d="M16.45 12.0168C16.404 12.0168 16.3585 12.0259 16.3161 12.0435C16.2736 12.0611 16.235 12.0869 16.2025 12.1194C16.17 12.1519 16.1442 12.1904 16.1266 12.2329C16.1091 12.2754 16.1 12.3209 16.1 12.3668V14.2335H15.9833C15.75 14.2335 15.75 14.3502 15.75 14.5835C15.75 14.8168 15.75 15.0502 15.9833 15.0502H16.9167C17.15 15.0502 17.15 14.8168 17.15 14.5835C17.15 14.3502 17.15 14.2335 16.9167 14.2335V12.3668C16.9167 12.1335 16.6833 12.0168 16.45 12.0168Z" fill="#4E4B66"/>
</svg>
