<svg width="44" height="44" viewBox="0 0 44 44" fill="none" xmlns="http://www.w3.org/2000/svg">
<g clip-path="url(#clip0_12_5888)">
<path fill-rule="evenodd" clip-rule="evenodd" d="M22 44C16.5683 43.9918 11.3332 41.9665 7.31016 38.3171C3.28709 34.6677 0.762779 29.6542 0.226761 24.2491C-0.309257 18.8439 1.18127 13.4322 4.40923 9.06377C7.63719 4.6953 12.3725 1.68133 17.6968 0.606451C23.0211 -0.468433 28.5548 0.472372 33.2247 3.2464C37.8946 6.02042 41.3679 10.4299 42.9708 15.6197C44.5738 20.8095 44.1921 26.4097 41.8999 31.334C39.6077 36.2584 35.5685 40.1559 30.5654 42.2708C27.8556 43.4174 24.9424 44.0055 22 44ZM22 0.759731C17.7989 0.760311 13.6922 2.00665 10.1994 4.34114C6.70653 6.67563 3.98441 9.99342 2.37717 13.875C0.769925 17.7565 0.349769 22.0275 1.16984 26.1479C1.9899 30.2682 4.01334 34.0528 6.98431 37.0232C9.95529 39.9936 13.7404 42.0162 17.8609 42.8354C21.9814 43.6547 26.2522 43.2336 30.1335 41.6256C34.0147 40.0175 37.332 37.2947 39.6657 33.8014C41.9995 30.3081 43.2449 26.2012 43.2447 22C43.2381 16.3679 40.9976 10.9683 37.0148 6.98608C33.032 3.00383 27.6322 0.764088 22 0.758265V0.759731ZM22 34.8436C19.4601 34.8439 16.9771 34.091 14.8651 32.6801C12.753 31.2693 11.1068 29.2638 10.1345 26.9173C9.16229 24.5708 8.90768 21.9887 9.40292 19.4975C9.89815 17.0063 11.121 14.718 12.9168 12.9217C14.7126 11.1255 17.0006 9.90218 19.4917 9.40638C21.9828 8.91057 24.565 9.1646 26.9117 10.1363C29.2584 11.108 31.2642 12.7538 32.6756 14.8655C34.087 16.9773 34.8404 19.4601 34.8407 22C34.8376 25.4047 33.4837 28.6692 31.0764 31.0768C28.669 33.4845 25.4048 34.8386 22 34.8421V34.8436ZM22 9.91613C19.6097 9.91613 17.2731 10.625 15.2856 11.953C13.2982 13.281 11.7492 15.1686 10.8345 17.3769C9.91982 19.5853 9.68056 22.0154 10.147 24.3597C10.6134 26.7041 11.7646 28.8575 13.4549 30.5476C15.1452 32.2377 17.2988 33.3886 19.6432 33.8548C21.9876 34.3209 24.4176 34.0814 26.6259 33.1664C28.8341 32.2515 30.7216 30.7023 32.0493 28.7146C33.3771 26.727 34.0856 24.3903 34.0853 22C34.0815 18.796 32.8069 15.7243 30.5413 13.4587C28.2757 11.1931 25.2041 9.91855 22 9.91467V9.91613ZM9.18136 15.3751L8.67531 16.6349L6.24068 15.6486C5.94735 15.5291 5.68338 15.4132 5.44138 15.301C5.50749 15.4338 5.56624 15.5702 5.61737 15.7095L5.83732 16.4054L4.78136 16.7281L4.13602 14.63L4.59069 13.5117L9.18136 15.3751ZM10.0247 9.9484C10.58 10.3306 11.0089 10.8695 11.2567 11.4965C11.3182 11.7474 11.3169 12.0096 11.253 12.2599C11.189 12.5103 11.0644 12.741 10.89 12.9316C10.7403 13.1433 10.5393 13.3136 10.3059 13.4266C10.0725 13.5396 9.8143 13.5915 9.55537 13.5777C8.89556 13.4832 8.27959 13.1918 7.78801 12.7417C7.22838 12.3591 6.79665 11.8172 6.54872 11.1863C6.48519 10.9349 6.4854 10.6716 6.54943 10.4203C6.61347 10.1691 6.73929 9.93779 6.91538 9.74747C7.06501 9.53587 7.26598 9.36587 7.49949 9.25348C7.733 9.14109 7.9913 9.09001 8.25001 9.10507C8.91307 9.2008 9.53172 9.49477 10.0247 9.9484ZM8.62402 11.7025C8.91408 11.9616 9.24009 12.1772 9.59198 12.3427C9.66618 12.3849 9.75266 12.4002 9.83681 12.386C9.92097 12.3718 9.99766 12.3291 10.054 12.265C10.1045 12.1937 10.1291 12.1073 10.1237 12.02C10.1184 11.9328 10.0835 11.85 10.0247 11.7854C9.7855 11.4837 9.50677 11.2156 9.19604 10.9883C8.90242 10.7341 8.57698 10.5191 8.22799 10.3488C8.15285 10.3033 8.06428 10.2853 7.97734 10.2979C7.8904 10.3104 7.81047 10.3528 7.75131 10.4177C7.70114 10.4878 7.67606 10.5727 7.68005 10.6588C7.68404 10.7449 7.71689 10.8271 7.77333 10.8922C8.02029 11.1983 8.30631 11.4707 8.62402 11.7025ZM13.9113 7.02093C14.3363 7.54407 14.5943 8.18277 14.652 8.85427C14.6414 9.1132 14.5661 9.36535 14.4329 9.58763C14.2996 9.8099 14.1127 9.99521 13.8893 10.1266C13.6864 10.2871 13.446 10.3933 13.1907 10.4353C12.9354 10.4772 12.6736 10.4535 12.43 10.3664C11.8236 10.0885 11.3151 9.63441 10.9706 9.06327C10.5453 8.53644 10.2873 7.89436 10.23 7.21967C10.2546 6.9643 10.3351 6.71749 10.4659 6.49674C10.5966 6.276 10.7742 6.08674 10.9863 5.94241C11.1984 5.79807 11.4397 5.70221 11.693 5.66161C11.9463 5.62102 12.2054 5.6367 12.452 5.70753C13.0596 5.98842 13.5682 6.44619 13.9113 7.02093ZM12.0633 8.30353C12.2718 8.63215 12.5233 8.93133 12.8113 9.19306C12.8696 9.25956 12.9505 9.30208 13.0383 9.31238C13.1262 9.32269 13.2147 9.30006 13.2868 9.24887C13.3588 9.19768 13.4093 9.12157 13.4286 9.03526C13.4478 8.94896 13.4343 8.85859 13.3907 8.78166C13.2409 8.42672 13.0488 8.09112 12.8187 7.78213C12.6099 7.45442 12.3583 7.15602 12.0707 6.8948C12.0161 6.82427 11.9368 6.77717 11.8487 6.76308C11.7607 6.74899 11.6706 6.76898 11.5968 6.81897C11.523 6.86896 11.471 6.9452 11.4514 7.03217C11.4318 7.11915 11.4461 7.21032 11.4914 7.28713C11.6348 7.65045 11.8271 7.99243 12.0633 8.30353ZM17.2554 4.67573C17.379 5.06959 17.3608 5.49433 17.204 5.8762C17.1221 6.03714 17.004 6.17687 16.8589 6.2844C16.7138 6.39193 16.5458 6.46432 16.368 6.49587C16.198 6.54391 16.0192 6.55121 15.8459 6.51719C15.6726 6.48317 15.5098 6.40879 15.3707 6.30007C15.0784 6.01936 14.8723 5.66124 14.7762 5.26761C14.6801 4.87397 14.698 4.46111 14.828 4.07733C14.9079 3.92039 15.023 3.78397 15.1641 3.67866C15.3053 3.57336 15.4688 3.502 15.642 3.47013C15.8136 3.42136 15.9943 3.41279 16.1698 3.44509C16.3453 3.4774 16.5109 3.5497 16.654 3.6564C16.9707 3.91266 17.1842 4.27462 17.2554 4.67573ZM15.7667 5.04607C15.8 5.23403 15.8671 5.4144 15.9647 5.57846C15.9833 5.62153 16.0158 5.65709 16.057 5.67944C16.0982 5.70179 16.1458 5.70962 16.192 5.70167C16.2356 5.68719 16.2735 5.65906 16.2999 5.62142C16.3264 5.58378 16.3399 5.53863 16.3387 5.49267C16.3427 5.30183 16.318 5.11149 16.2654 4.928C16.2303 4.74159 16.166 4.5619 16.0747 4.3956C16.0587 4.35022 16.0262 4.31244 15.9839 4.28964C15.9415 4.26684 15.8921 4.26065 15.8454 4.27229C15.7987 4.28392 15.758 4.31254 15.7312 4.35255C15.7045 4.39257 15.6936 4.44112 15.7007 4.48873C15.6928 4.67684 15.7151 4.865 15.7667 5.04607ZM19.316 2.66347L17.798 8.1224L16.8154 8.35633L18.3407 2.8974L19.316 2.66347ZM21.384 5.71707C21.5057 6.11075 21.4849 6.53469 21.3253 6.9146C21.2426 7.07485 21.1243 7.21399 20.9793 7.32129C20.8344 7.4286 20.6667 7.50121 20.4893 7.53353C20.3193 7.58116 20.1406 7.58826 19.9674 7.55426C19.7942 7.52025 19.6313 7.44609 19.492 7.33773C19.1985 7.05852 18.992 6.70054 18.897 6.30678C18.8021 5.91301 18.8227 5.50021 18.9567 5.11793C19.0341 4.96059 19.1475 4.82366 19.2876 4.71819C19.4277 4.61272 19.5907 4.54165 19.7633 4.51073C19.9361 4.46167 20.118 4.45295 20.2947 4.48524C20.4714 4.51754 20.6383 4.58998 20.7827 4.697C21.0976 4.95627 21.3107 5.31868 21.384 5.72V5.71707ZM19.8953 6.0874C19.9304 6.27383 19.9947 6.45353 20.086 6.6198C20.1052 6.66238 20.1378 6.69749 20.1789 6.71975C20.2199 6.742 20.2672 6.75017 20.3133 6.743C20.3633 6.7278 20.4062 6.69534 20.4344 6.6514C20.4626 6.60747 20.4743 6.55494 20.4674 6.5032C20.4629 6.32258 20.4384 6.14302 20.3941 5.96787C20.358 5.791 20.2987 5.61964 20.218 5.4582C20.1995 5.40886 20.1647 5.36735 20.1193 5.34064C20.0739 5.31394 20.0207 5.30366 19.9687 5.31153C19.9237 5.32735 19.8851 5.35736 19.8586 5.39704C19.8322 5.43672 19.8193 5.48392 19.822 5.53153C19.8178 5.71925 19.8425 5.9065 19.8953 6.08667V6.0874ZM28.0207 7.09867C27.9441 7.37788 27.7888 7.62915 27.5733 7.82247C27.3458 8.01333 27.0685 8.1352 26.774 8.17373C26.422 8.21857 26.0644 8.18757 25.7253 8.0828C25.4546 8.01162 25.1917 7.91335 24.9407 7.78947C24.7241 7.67281 24.5222 7.53076 24.3393 7.36633L24.662 6.21867C24.8714 6.41237 25.1 6.58436 25.3441 6.732C25.5634 6.86795 25.8002 6.9733 26.048 7.04513C26.1914 7.09821 26.3478 7.10513 26.4953 7.06493C26.5447 7.04738 26.5891 7.01823 26.6248 6.97995C26.6605 6.94167 26.6866 6.89536 26.7007 6.84493C26.7167 6.78348 26.7141 6.71867 26.6934 6.65867C26.662 6.58529 26.6172 6.5184 26.5613 6.4614C26.389 6.28999 26.2079 6.1277 26.0187 5.9752C25.7967 5.79922 25.5995 5.59426 25.4321 5.3658C25.3179 5.20065 25.2449 5.01054 25.2194 4.8114C25.1932 4.59577 25.2131 4.37703 25.278 4.16973C25.3249 3.97 25.4194 3.78459 25.5535 3.62931C25.6876 3.47403 25.8573 3.3535 26.048 3.278C26.5096 3.12186 27.01 3.12341 27.4706 3.2824C27.9891 3.4368 28.469 3.69922 28.8787 4.0524L28.204 4.9324C27.8978 4.64904 27.5356 4.43317 27.1407 4.2988C27.0136 4.25216 26.875 4.24677 26.7447 4.2834C26.7034 4.29947 26.6662 4.32452 26.6357 4.35674C26.6053 4.38895 26.5824 4.42752 26.5687 4.46967C26.5578 4.52145 26.5595 4.57508 26.5735 4.62611C26.5875 4.67713 26.6135 4.72406 26.6493 4.763C26.8549 4.98943 27.0781 5.19932 27.3167 5.39073C27.6101 5.61079 27.8464 5.89797 28.006 6.2282C28.1073 6.50869 28.1125 6.81492 28.0207 7.09867ZM30.8953 10.5761L31.2107 9.67047L29.8833 8.76626L29.15 9.394L27.9327 8.56753L32.0687 5.3592L33.5427 6.3624L32.1054 11.3989L30.8953 10.5761ZM31.5993 8.60567L31.878 7.81293C31.9367 7.63547 32.0174 7.40813 32.12 7.13093C32.2227 6.85373 32.3033 6.6572 32.3547 6.54427C32.274 6.62835 32.1347 6.7628 31.9367 6.9476C31.7387 7.1324 31.3354 7.4888 30.7267 8.0168L31.5993 8.60567ZM33.242 12.9881L32.428 11.9504L36.3294 8.89167L38.1333 11.1958L37.29 11.8558L36.2927 10.5893L35.552 11.176L36.4687 12.3442L35.6253 13.0042L34.7086 11.836L33.242 12.9881ZM35.8086 17.7811L34.6794 15.0678L39.248 13.1611L40.3846 15.8745L39.3873 16.2873L38.7713 14.8075L38.0527 15.1074L38.6247 16.478L37.6346 16.8909L37.0627 15.5203L36.1973 15.8796L36.8133 17.3595L35.8086 17.7811ZM10.912 36.5083C10.7204 36.7264 10.4673 36.8815 10.186 36.9534C9.89681 37.023 9.59356 37.0069 9.31331 36.9072C8.97916 36.7886 8.67418 36.6001 8.41866 36.3543C8.21045 36.1695 8.02127 35.9644 7.85398 35.7419C7.71246 35.5391 7.59439 35.3209 7.502 35.0915L8.30865 34.2115C8.4091 34.4789 8.53691 34.7352 8.68999 34.9763C8.82549 35.1943 8.98815 35.3941 9.17402 35.5711C9.27818 35.6822 9.41379 35.759 9.56271 35.7911C9.61508 35.7988 9.6685 35.7936 9.71838 35.7758C9.76826 35.7581 9.81307 35.7283 9.84872 35.6891C9.89231 35.6425 9.92047 35.5836 9.92937 35.5205C9.93236 35.4412 9.92242 35.3619 9.90001 35.2858C9.87068 35.1919 9.78268 34.9646 9.62868 34.6053C9.51148 34.3481 9.42771 34.077 9.37937 33.7986C9.35378 33.5992 9.37381 33.3966 9.43801 33.2061C9.51383 33.0021 9.63117 32.816 9.78265 32.6597C9.91352 32.5023 10.0807 32.3791 10.2698 32.3007C10.4589 32.2222 10.6641 32.1909 10.868 32.2095C11.3508 32.2768 11.7973 32.5034 12.1367 32.8533C12.5323 33.2235 12.8447 33.6734 13.0534 34.1733L12.0487 34.6581C11.9027 34.2662 11.6752 33.9098 11.3814 33.6123C11.292 33.5148 11.1738 33.4485 11.0441 33.4231C10.9997 33.4167 10.9543 33.4213 10.9121 33.4365C10.8699 33.4518 10.8321 33.4771 10.802 33.5104C10.7684 33.5505 10.7449 33.598 10.7334 33.6491C10.7219 33.7001 10.7228 33.7531 10.736 33.8037C10.817 34.0997 10.9224 34.3884 11.0513 34.6669C11.2165 34.9945 11.2996 35.3574 11.2934 35.7243C11.2561 36.0207 11.1221 36.2966 10.912 36.509V36.5083ZM14.1387 40.0869L11.5353 38.7134L13.8527 34.331L16.456 35.7045L15.95 36.6579L14.5346 35.9099L14.168 36.5992L15.4807 37.2922L14.9821 38.2455L13.6694 37.5525L13.2294 38.3797L14.652 39.1285L14.1387 40.0869ZM19.118 37.4565C18.9754 37.421 18.8261 37.4232 18.6847 37.4629C18.5433 37.5027 18.4145 37.5785 18.3113 37.6831C18.0486 37.9578 17.8771 38.3068 17.82 38.6826C17.622 39.6147 17.8787 40.1573 18.5827 40.3091C18.7945 40.3546 19.0119 40.3694 19.228 40.3531C19.4469 40.336 19.6647 40.3077 19.8807 40.2681L19.6387 41.3747C19.168 41.4666 18.6831 41.4578 18.216 41.349C17.9018 41.3029 17.6011 41.1901 17.3342 41.0181C17.0673 40.846 16.8404 40.6188 16.6687 40.3517C16.3551 39.7456 16.2868 39.0421 16.478 38.3871C16.5661 37.9286 16.7594 37.4968 17.0427 37.1257C17.3001 36.7968 17.6499 36.5524 18.0473 36.4239C18.4762 36.2945 18.9318 36.2813 19.3674 36.3858C19.8854 36.4955 20.3717 36.7211 20.79 37.0458L20.1667 37.9903C20.0115 37.8689 19.8472 37.7596 19.6753 37.6633C19.5018 37.5651 19.3136 37.4955 19.118 37.4572V37.4565ZM25.6373 36.3895L25.938 39.3573C25.9831 39.6297 25.9712 39.9085 25.903 40.1761C25.8348 40.4437 25.7119 40.6943 25.542 40.9119C25.1282 41.2993 24.5994 41.5414 24.0357 41.6015C23.4721 41.6615 22.9041 41.5364 22.418 41.2449C22.2089 41.0683 22.039 40.8501 21.919 40.6041C21.799 40.3581 21.7317 40.0898 21.7213 39.8163L21.4207 36.8185L22.7627 36.6828L23.056 39.5758C23.057 39.8464 23.1532 40.108 23.3274 40.315C23.4073 40.3887 23.503 40.4431 23.6073 40.4739C23.7116 40.5047 23.8216 40.511 23.9287 40.4925C24.0393 40.4918 24.1482 40.4649 24.2464 40.4139C24.3446 40.3629 24.4292 40.2893 24.4934 40.1991C24.6123 39.9553 24.6508 39.6801 24.6034 39.413L24.31 36.5266L25.6373 36.3895ZM28.9814 38.4391L29.722 40.0825L28.5047 40.6333L26.466 36.1167L27.9473 35.4486C29.172 34.8942 29.986 35.0619 30.3893 35.9517C30.5048 36.2057 30.5455 36.4873 30.5065 36.7636C30.4675 37.0399 30.3506 37.2993 30.1694 37.5115L32.3767 38.885L30.9907 39.5098L29.2893 38.2991L28.9814 38.4391ZM28.5707 37.5217L28.798 37.4183C28.8863 37.3978 28.9686 37.3572 29.0386 37.2995C29.1085 37.2418 29.1642 37.1688 29.2011 37.086C29.2381 37.0032 29.2553 36.913 29.2515 36.8224C29.2478 36.7319 29.2231 36.6434 29.1794 36.564C29.04 36.2531 28.7614 36.192 28.3434 36.3807L28.1013 36.4892L28.5707 37.5217ZM36.0067 35.9333L33.7627 37.8327L30.558 34.0494L32.8093 32.1493L33.4987 32.9699L32.274 34.0054L32.78 34.6009L33.9167 33.6424L34.606 34.4667L33.4767 35.4251L34.078 36.1394L35.3027 35.1039L36.0067 35.9333ZM5.25804 23.6742L5.79336 24.7595L6.9887 24.9333L6.12333 25.7781L6.32868 26.9713L5.25804 26.4081L4.18732 26.9713L4.39267 25.7781L3.52739 24.9333L4.72264 24.7595L5.25804 23.6742ZM6.9887 27.9275L7.52402 29.0129L8.7267 29.1867L7.85398 30.0315L8.05934 31.2246L6.9887 30.6614L5.91797 31.2246L6.12333 30.0315L5.25804 29.1867L6.45338 29.0129L6.9887 27.9275ZM5.09664 19.2962L5.63205 20.3815L6.82739 20.5553L5.96202 21.4001L6.16737 22.5933L5.09664 22.0301L4.026 22.5933L4.23136 21.4001L3.36599 20.5553L4.56132 20.3815L5.09664 19.2962ZM39.116 23.6771L38.5807 24.7625L37.3853 24.9363L38.2507 25.7811L38.0453 26.9742L39.116 26.411L40.1867 26.9742L39.9814 25.7811L40.854 24.9333L39.6513 24.7595L39.116 23.6771ZM37.3853 27.9305L36.85 29.0158L35.6547 29.1896L36.5201 30.0344L36.3147 31.2275L37.3853 30.6643L38.456 31.2275L38.2507 30.0344L39.116 29.1896L37.9207 29.0158L37.3853 27.9305ZM39.2774 19.2991L38.742 20.3845L37.5466 20.5583L38.412 21.4031L38.2067 22.5962L39.2774 22.033L40.348 22.5962L40.1427 21.4031L41.0154 20.5583L39.8127 20.3845L39.2774 19.2991ZM24.8013 16.3658C25.3738 17.035 25.6886 17.8867 25.6887 18.7675V20.3808H26.3414C26.3915 20.3807 26.4411 20.3905 26.4874 20.4096C26.5337 20.4288 26.5758 20.4568 26.6112 20.4923C26.6466 20.5277 26.6747 20.5698 26.6938 20.6161C26.7129 20.6624 26.7227 20.712 26.7226 20.7621V27.9195C26.7228 27.9696 26.7132 28.0193 26.6941 28.0656C26.675 28.112 26.6469 28.1541 26.6115 28.1895C26.576 28.225 26.5338 28.2531 26.4875 28.2722C26.4411 28.2913 26.3915 28.301 26.3414 28.3008H17.6586C17.5608 28.3001 17.4667 28.263 17.3947 28.1967C17.3572 28.1608 17.3274 28.1176 17.3072 28.0698C17.287 28.022 17.2769 27.9706 17.2774 27.9187V20.7533C17.2773 20.7032 17.2871 20.6536 17.3062 20.6073C17.3253 20.561 17.3534 20.5189 17.3888 20.4835C17.4243 20.448 17.4663 20.42 17.5126 20.4008C17.559 20.3817 17.6085 20.3719 17.6586 20.372H18.3113V18.7587C18.3119 18.0052 18.5433 17.2699 18.9742 16.6518C19.4051 16.0337 20.0149 15.5623 20.7217 15.3011C21.4285 15.0398 22.1983 15.0013 22.9276 15.1906C23.6569 15.3799 24.3108 15.788 24.8013 16.3599V16.3658ZM23.9287 20.3808V18.7675C23.9287 18.256 23.7255 17.7654 23.3638 17.4037C23.0021 17.042 22.5115 16.8388 22 16.8388C21.4885 16.8388 20.9979 17.042 20.6362 17.4037C20.2745 17.7654 20.0713 18.256 20.0713 18.7675V20.3808H23.9287ZM22.5941 24.7368C22.7717 24.6108 22.9046 24.4315 22.9737 24.225C23.0428 24.0184 23.0443 23.7952 22.9782 23.5877C22.912 23.3802 22.7816 23.1991 22.6058 23.0705C22.4299 22.942 22.2178 22.8728 22 22.8728C21.7822 22.8728 21.5701 22.942 21.3942 23.0705C21.2184 23.1991 21.088 23.3802 21.0218 23.5877C20.9557 23.7952 20.9573 24.0184 21.0263 24.225C21.0954 24.4315 21.2283 24.6108 21.406 24.7368V26.2533C21.4065 26.3172 21.4323 26.3783 21.4776 26.4233C21.5229 26.4683 21.5842 26.4937 21.648 26.4939H22.352C22.4159 26.4937 22.4771 26.4683 22.5224 26.4233C22.5677 26.3783 22.5935 26.3172 22.5941 26.2533V24.7317V24.7368Z" fill="#00BA88"/>
</g>
<defs>
<clipPath id="clip0_12_5888">
<rect width="44" height="44" fill="white"/>
</clipPath>
</defs>
</svg>
