<svg width="38" height="16" viewBox="0 0 38 16" fill="none" xmlns="http://www.w3.org/2000/svg">
<path d="M3.6304 12.0359H3.86874L3.64554 12.9627C3.61149 13.0989 3.61905 13.2048 3.66445 13.2729C3.70985 13.341 3.79308 13.3751 3.91792 13.3751C4.03897 13.3751 4.14112 13.341 4.22056 13.2729C4.3 13.2048 4.35297 13.0989 4.38701 12.9627L4.61021 12.0359H4.85233L4.62535 12.9854C4.57617 13.1897 4.48916 13.3448 4.36053 13.4469C4.23569 13.5491 4.06924 13.602 3.86495 13.602C3.66067 13.602 3.5207 13.5529 3.44503 13.4507C3.36937 13.3486 3.35424 13.1935 3.40342 12.9892L3.6304 12.0359ZM4.81828 13.5604L5.19659 11.9753L5.91537 12.906C5.93428 12.9325 5.9532 12.9589 5.97211 12.9892C5.99103 13.0195 6.00994 13.0535 6.03264 13.0913L6.2861 12.0359H6.5093L6.131 13.6172L5.39709 12.6676C5.37817 12.6412 5.35926 12.6147 5.34034 12.5882C5.32143 12.5579 5.30629 12.5314 5.29495 12.4974L5.04148 13.5567H4.81828V13.5604ZM6.49039 13.5604L6.85356 12.0359H7.09568L6.7325 13.5604H6.49039ZM7.07676 13.5604L7.43993 12.0359H8.26842L8.21924 12.2477H7.63287L7.54208 12.626H8.12845L8.07549 12.8417H7.48911L7.31888 13.5567H7.07676V13.5604ZM8.17384 13.5604L8.53702 12.0359H8.77913L8.41596 13.5604H8.17384ZM8.76022 13.5604L9.12339 12.0359H9.95188L9.9027 12.2477H9.31633L9.22553 12.6298H9.8119L9.75894 12.8454H9.17257L9.0553 13.3372H9.64167L9.58871 13.5604H8.76022ZM9.86865 13.5604L10.2318 12.0359H10.5572C10.769 12.0359 10.9166 12.0472 10.996 12.0699C11.0754 12.0926 11.1435 12.1267 11.1965 12.1796C11.2646 12.2477 11.31 12.3347 11.3289 12.4369C11.3478 12.5428 11.3403 12.6639 11.31 12.7963C11.2759 12.9325 11.2268 13.0497 11.1587 13.1557C11.0906 13.2616 11.0036 13.3448 10.9014 13.4129C10.8258 13.4659 10.7425 13.4999 10.6517 13.5226C10.5647 13.5453 10.4323 13.5567 10.2583 13.5567H10.194H9.86865V13.5604ZM10.1637 13.3335H10.368C10.4777 13.3335 10.5647 13.3259 10.6253 13.3108C10.6858 13.2956 10.7388 13.2691 10.7879 13.2351C10.856 13.1859 10.9128 13.1254 10.9582 13.0497C11.0036 12.9778 11.0376 12.8908 11.0603 12.7925C11.083 12.6941 11.0906 12.6109 11.0792 12.539C11.0679 12.4671 11.0414 12.4028 10.996 12.3536C10.962 12.3158 10.9203 12.2931 10.8636 12.278C10.8068 12.2629 10.7198 12.2553 10.595 12.2553H10.508H10.421L10.1637 13.3335ZM12.4222 12.8757L12.2595 13.5604H12.0326L12.3957 12.0359H12.7627C12.8724 12.0359 12.9481 12.0434 12.9972 12.0548C13.0464 12.0661 13.0842 12.085 13.1145 12.1153C13.1523 12.1494 13.1788 12.1985 13.1902 12.2591C13.2015 12.3196 13.1977 12.3839 13.1826 12.4558C13.1637 12.5277 13.1372 12.5958 13.0956 12.6563C13.054 12.7168 13.0048 12.766 12.9518 12.8C12.9064 12.8265 12.8573 12.8492 12.8043 12.8606C12.7513 12.8719 12.6681 12.8795 12.5622 12.8795H12.513H12.4222V12.8757ZM12.4865 12.6714H12.547C12.6795 12.6714 12.774 12.6563 12.827 12.626C12.88 12.5958 12.914 12.5428 12.9329 12.4671C12.9518 12.3877 12.9405 12.3272 12.9027 12.2969C12.861 12.2629 12.7778 12.2477 12.653 12.2477H12.5924L12.4865 12.6714ZM14.0035 13.5604L13.9279 13.167H13.3377L13.0729 13.5604H12.8194L13.9165 11.9753L14.257 13.5604H14.0035ZM13.4815 12.9589H13.8938L13.8257 12.6109C13.8219 12.5882 13.8182 12.5617 13.8182 12.5352C13.8144 12.505 13.8144 12.4747 13.8144 12.4407C13.7992 12.4747 13.7841 12.505 13.7652 12.5352C13.7501 12.5655 13.7349 12.592 13.7198 12.6147L13.4815 12.9589ZM14.605 13.5604L14.7715 12.8644L14.4688 12.0397H14.7223L14.9115 12.5579C14.9152 12.5731 14.919 12.5882 14.9266 12.6109C14.9342 12.6336 14.9379 12.6563 14.9455 12.679C14.9606 12.6563 14.9758 12.6336 14.9909 12.6109C15.006 12.5882 15.0212 12.5693 15.0363 12.5504L15.4789 12.0397H15.721L15.0136 12.8606L14.8471 13.5567H14.605V13.5604ZM16.9089 12.8076C16.9089 12.7963 16.9127 12.7622 16.9203 12.7093C16.924 12.6639 16.9278 12.6298 16.9316 12.5995C16.9165 12.6336 16.9013 12.6676 16.8824 12.7055C16.8635 12.7395 16.8408 12.7773 16.8143 12.8114L16.2317 13.6247L16.0426 12.7963C16.035 12.7622 16.0275 12.7282 16.0237 12.6979C16.0199 12.6676 16.0161 12.6336 16.0161 12.6033C16.0085 12.6336 15.9972 12.6676 15.9858 12.7055C15.9745 12.7395 15.9594 12.7773 15.9404 12.8152L15.6 13.5642H15.3768L16.1069 11.9753L16.315 12.9362C16.3187 12.9514 16.3225 12.9778 16.3263 13.0119C16.3301 13.0459 16.3377 13.0913 16.3452 13.1443C16.3717 13.0989 16.4058 13.0459 16.4512 12.9778C16.4625 12.9589 16.4739 12.9476 16.4776 12.9362L17.1359 11.9753L17.1132 13.5642H16.89L16.9089 12.8076ZM17.3099 13.5604L17.6731 12.0359H18.5016L18.4524 12.2477H17.866L17.7752 12.6298H18.3616L18.3086 12.8454H17.7223L17.605 13.3372H18.1914L18.1384 13.5604H17.3099ZM18.4146 13.5604L18.7929 11.9753L19.5116 12.906C19.5306 12.9325 19.5495 12.9589 19.5684 12.9892C19.5873 13.0195 19.6062 13.0535 19.6289 13.0913L19.8824 12.0359H20.1056L19.7273 13.6172L18.9934 12.6676C18.9744 12.6412 18.9555 12.6147 18.9366 12.5882C18.9177 12.5579 18.9026 12.5314 18.8912 12.4974L18.6378 13.5567H18.4146V13.5604ZM20.8773 12.2439L20.5633 13.5567H20.3212L20.6352 12.2439H20.2418L20.2909 12.0321H21.3199L21.2708 12.2439H20.8773ZM21.1308 13.254L21.3464 13.1632C21.3502 13.2313 21.3691 13.2843 21.4107 13.3183C21.4523 13.3524 21.5091 13.3713 21.5848 13.3713C21.6566 13.3713 21.7172 13.3524 21.7701 13.3108C21.8231 13.2691 21.8571 13.2162 21.8723 13.1481C21.895 13.0573 21.842 12.9778 21.7134 12.9098C21.6945 12.8984 21.6831 12.8908 21.6718 12.8871C21.528 12.8038 21.4372 12.7319 21.3994 12.6639C21.3616 12.5958 21.354 12.5163 21.3767 12.4217C21.4069 12.2969 21.4713 12.1985 21.5734 12.1191C21.6755 12.0434 21.789 12.0018 21.9252 12.0018C22.0349 12.0018 22.1219 12.0245 22.1863 12.0661C22.2506 12.1077 22.2846 12.1721 22.296 12.2515L22.0841 12.3499C22.0652 12.3007 22.0425 12.2666 22.0122 12.2439C21.982 12.2212 21.9441 12.2099 21.8987 12.2099C21.8344 12.2099 21.7777 12.2288 21.7323 12.2629C21.6869 12.2969 21.6566 12.3423 21.6415 12.4028C21.6188 12.4936 21.6831 12.5806 21.8307 12.6601C21.842 12.6676 21.8496 12.6714 21.8571 12.6752C21.9858 12.7433 22.0728 12.8114 22.1106 12.8795C22.1484 12.9476 22.156 13.027 22.1333 13.1292C22.0992 13.2729 22.0274 13.3864 21.9177 13.4734C21.808 13.5567 21.6793 13.602 21.528 13.602C21.4032 13.602 21.3048 13.5718 21.2367 13.5113C21.1611 13.4507 21.127 13.3637 21.1308 13.254ZM22.9126 13.5604L23.2758 12.0359H23.5179L23.1547 13.5604H22.9126ZM23.5028 13.5604L23.8811 11.9753L24.5998 12.906C24.6188 12.9325 24.6377 12.9589 24.6566 12.9892C24.6755 13.0195 24.6944 13.0535 24.7171 13.0913L24.9706 12.0359H25.1938L24.8155 13.6172L24.0816 12.6676C24.0626 12.6412 24.0437 12.6147 24.0248 12.5882C24.0059 12.5579 23.9908 12.5314 23.9794 12.4974L23.726 13.5567H23.5028V13.5604ZM25.9655 12.2439L25.6515 13.5567H25.4094L25.7234 12.2439H25.33L25.3792 12.0321H26.4081L26.359 12.2439H25.9655ZM26.2266 13.5604L26.5897 12.0359H27.422L27.3728 12.2477H26.7864L26.6957 12.6298H27.282L27.2291 12.8454H26.6427L26.5254 13.3372H27.1118L27.0588 13.5604H26.2266ZM27.7209 12.8757L27.5582 13.5567H27.3312L27.6944 12.0321H28.0311C28.1294 12.0321 28.2051 12.0397 28.2543 12.051C28.3072 12.0624 28.3488 12.085 28.3791 12.1153C28.4169 12.1531 28.4396 12.1985 28.451 12.2591C28.4623 12.3158 28.4586 12.3801 28.4434 12.452C28.4132 12.5731 28.364 12.6714 28.2883 12.7395C28.2127 12.8076 28.1181 12.8492 28.0046 12.8644L28.3488 13.5567H28.0765L27.7473 12.8757H27.7209ZM27.7814 12.6828H27.8268C27.9554 12.6828 28.0424 12.6676 28.0916 12.6374C28.1408 12.6071 28.1748 12.5541 28.1937 12.4747C28.2127 12.3915 28.2051 12.3309 28.1673 12.2969C28.1294 12.2629 28.05 12.2439 27.9289 12.2439H27.8835L27.7814 12.6828ZM28.4964 13.5604L28.8596 12.0359H29.688L29.6389 12.2477H29.0525L28.9617 12.626H29.5481L29.4951 12.8417H28.9087L28.7385 13.5567H28.4964V13.5604ZM30.4938 13.5604L30.4182 13.167H29.828L29.5632 13.5604H29.3097L30.4068 11.9753L30.7473 13.5604H30.4938ZM29.968 12.9589H30.3803L30.3122 12.6109C30.3085 12.5882 30.3047 12.5617 30.3047 12.5352C30.3009 12.505 30.3009 12.4747 30.3009 12.4407C30.2858 12.4747 30.2706 12.505 30.2517 12.5352C30.2366 12.5655 30.2215 12.592 30.2063 12.6147L29.968 12.9589ZM32.321 12.4066C32.2681 12.3461 32.2038 12.3007 32.1357 12.2742C32.0676 12.2439 31.9919 12.2288 31.9049 12.2288C31.7422 12.2288 31.5985 12.2818 31.4699 12.3877C31.3412 12.4936 31.258 12.6336 31.2164 12.8038C31.1786 12.9665 31.1937 13.1027 31.2694 13.2124C31.3412 13.3183 31.4547 13.3713 31.606 13.3713C31.6931 13.3713 31.7801 13.3562 31.8671 13.3221C31.9541 13.2918 32.0411 13.2427 32.1319 13.1783L32.0638 13.4583C31.9881 13.5075 31.9087 13.5415 31.8255 13.5642C31.7422 13.5869 31.659 13.5983 31.5682 13.5983C31.4547 13.5983 31.3526 13.5794 31.2656 13.5415C31.1786 13.5037 31.1067 13.4469 31.0499 13.3713C30.9932 13.2994 30.9591 13.2124 30.944 13.114C30.9289 13.0157 30.9327 12.9098 30.9629 12.7963C30.9894 12.6828 31.0348 12.5806 31.0953 12.4823C31.1559 12.3839 31.2353 12.2969 31.3261 12.225C31.4169 12.1494 31.5153 12.0926 31.6212 12.0548C31.7271 12.017 31.833 11.998 31.9427 11.998C32.0297 11.998 32.1092 12.0094 32.1849 12.0359C32.2567 12.0624 32.3248 12.1002 32.3854 12.1531L32.321 12.4066ZM32.3437 13.5604L32.7069 12.0359H33.5354L33.4862 12.2477H32.8998L32.8091 12.6298H33.3954L33.3425 12.8454H32.7561L32.6388 13.3372H33.2252L33.1722 13.5604H32.3437Z" fill="#3D3D3C"/>
<path d="M27.9402 10.7091H26.2795L28.5871 2.375H30.2479L27.9402 10.7091ZM27.0777 2.63603C26.9642 2.47714 26.7864 2.3977 26.5443 2.3977H17.4196L16.9694 4.03198H18.6302H25.2694L24.7852 5.77596H18.146V5.77218H16.4852L15.1082 10.7469H16.7689L17.692 7.41024H25.1559C25.3905 7.41024 25.6099 7.3308 25.8142 7.17191C26.0185 7.01302 26.1547 6.8163 26.219 6.58176L27.142 3.2451C27.2139 2.99542 27.1912 2.79492 27.0777 2.63603ZM14.1397 10.187C14.0489 10.5161 13.7463 10.7469 13.4058 10.7469H4.84481C4.61027 10.7469 4.43625 10.6675 4.32275 10.5086C4.20926 10.3497 4.18278 10.153 4.25088 9.91841L6.33911 2.3977H7.99986L6.13483 9.1164H12.7778L14.6429 2.3977H16.3036L14.1397 10.187Z" fill="#70706E"/>
<path d="M33.1155 2.38892L35.2151 6.56538L30.8003 10.7418L33.1155 2.38892Z" fill="#098041"/>
<path d="M31.6397 2.38892L33.7393 6.56538L29.3207 10.7418L31.6397 2.38892Z" fill="#E97626"/>
</svg>
