<svg width="18" height="16" viewBox="0 0 18 16" fill="none" xmlns="http://www.w3.org/2000/svg">
<path d="M15.3832 1.325C13.1832 -0.175004 10.4665 0.524996 8.99985 2.24166C7.53319 0.524996 4.81652 -0.183338 2.61652 1.325C1.44985 2.125 0.716519 3.475 0.666519 4.9C0.549852 8.13333 3.41652 10.725 7.79152 14.7L7.87485 14.775C8.50819 15.35 9.48319 15.35 10.1165 14.7667L10.2082 14.6833C14.5832 10.7167 17.4415 8.125 17.3332 4.89166C17.2832 3.475 16.5499 2.125 15.3832 1.325ZM9.08319 13.4583L8.99985 13.5417L8.91652 13.4583C4.94985 9.86666 2.33319 7.49166 2.33319 5.08333C2.33319 3.41666 3.58319 2.16666 5.24985 2.16666C6.53319 2.16666 7.78319 2.99166 8.22485 4.13333H9.78319C10.2165 2.99166 11.4665 2.16666 12.7499 2.16666C14.4165 2.16666 15.6665 3.41666 15.6665 5.08333C15.6665 7.49166 13.0499 9.86666 9.08319 13.4583Z" fill="#4E4B66"/>
</svg>
