<svg width="136" height="24" viewBox="0 0 136 24" fill="none" xmlns="http://www.w3.org/2000/svg">
<path d="M136 1H0V21H128L136 1Z" fill="url(#paint0_linear_9_20460)"/>
<g filter="url(#filter0_di_9_20460)">
<path d="M121 16.3846L136 1L128 21C126 18.5385 122.5 16.8974 121 16.3846Z" fill="#FFFFFE"/>
</g>
<path d="M5.7125 14.15L5 13.4375L8.825 9.625L10.9125 11.7125L13.6375 9H12.1V8H15.3V11.2H14.325V9.7125L10.9 13.1375L8.8125 11.05L5.7125 14.15Z" fill="white"/>
<path d="M28.515 7.8V15H27.485V10.065C27.485 9.985 27.4867 9.89833 27.49 9.805C27.4967 9.70833 27.505 9.61167 27.515 9.515L25.2 13.79C25.11 13.9667 24.9717 14.055 24.785 14.055H24.62C24.43 14.055 24.2917 13.9667 24.205 13.79L21.855 9.505C21.865 9.60167 21.8717 9.69833 21.875 9.795C21.8817 9.89167 21.885 9.98167 21.885 10.065V15H20.855V7.8H21.73C21.8333 7.8 21.9133 7.81 21.97 7.83C22.0267 7.84667 22.0783 7.90167 22.125 7.995L24.435 12.18C24.485 12.2767 24.5317 12.3767 24.575 12.48C24.6217 12.58 24.6633 12.6833 24.7 12.79C24.74 12.6833 24.7817 12.5783 24.825 12.475C24.8717 12.3683 24.92 12.2667 24.97 12.17L27.245 7.995C27.2917 7.90167 27.3433 7.84667 27.4 7.83C27.4567 7.81 27.5367 7.8 27.64 7.8H28.515ZM35.2302 12.3L34.2402 9.67C34.1602 9.46667 34.0786 9.20833 33.9952 8.895C33.9586 9.05167 33.9186 9.19667 33.8752 9.33C33.8319 9.46 33.7919 9.575 33.7552 9.675L32.7652 12.3H35.2302ZM37.4452 15H36.5402C36.4369 15 36.3536 14.975 36.2902 14.925C36.2269 14.8717 36.1786 14.8067 36.1452 14.73L35.5452 13.14H32.4452L31.8452 14.73C31.8186 14.7967 31.7719 14.8583 31.7052 14.915C31.6386 14.9717 31.5552 15 31.4552 15H30.5502L33.4052 7.8H34.5902L37.4452 15ZM45.8055 11.4C45.8055 11.9333 45.7188 12.4217 45.5455 12.865C45.3721 13.305 45.1271 13.6833 44.8105 14C44.4971 14.3167 44.1188 14.5633 43.6755 14.74C43.2355 14.9133 42.7455 15 42.2055 15H39.4855V7.8H42.2055C42.7455 7.8 43.2355 7.88833 43.6755 8.065C44.1188 8.23833 44.4971 8.48333 44.8105 8.8C45.1271 9.11667 45.3721 9.49667 45.5455 9.94C45.7188 10.38 45.8055 10.8667 45.8055 11.4ZM44.6105 11.4C44.6105 10.9867 44.5538 10.615 44.4405 10.285C44.3305 9.955 44.1705 9.67667 43.9605 9.45C43.7538 9.22333 43.5021 9.05 43.2055 8.93C42.9088 8.80667 42.5755 8.745 42.2055 8.745H40.6605V14.055H42.2055C42.5755 14.055 42.9088 13.995 43.2055 13.875C43.5021 13.755 43.7538 13.5817 43.9605 13.355C44.1705 13.125 44.3305 12.8467 44.4405 12.52C44.5538 12.19 44.6105 11.8167 44.6105 11.4ZM52.7879 14.055L52.7829 15H48.2929V7.8H52.7829V8.745H49.4679V10.915H52.1179V11.83H49.4679V14.055H52.7879ZM63.5971 8.775H61.3521V15H60.1871V8.775H57.9371V7.8H63.5971V8.775ZM72.2809 11.4C72.2809 11.9333 72.1943 12.425 72.0209 12.875C71.8476 13.325 71.6026 13.7133 71.2859 14.04C70.9726 14.3633 70.5943 14.6167 70.1509 14.8C69.7109 14.9833 69.2209 15.075 68.6809 15.075C68.1443 15.075 67.6543 14.9833 67.2109 14.8C66.7709 14.6167 66.3926 14.3633 66.0759 14.04C65.7593 13.7133 65.5143 13.325 65.3409 12.875C65.1676 12.425 65.0809 11.9333 65.0809 11.4C65.0809 10.8667 65.1676 10.375 65.3409 9.925C65.5143 9.475 65.7593 9.08667 66.0759 8.76C66.3926 8.43333 66.7709 8.17833 67.2109 7.995C67.6543 7.81167 68.1443 7.72 68.6809 7.72C69.2209 7.72 69.7109 7.81167 70.1509 7.995C70.5943 8.17833 70.9726 8.43333 71.2859 8.76C71.6026 9.08667 71.8476 9.475 72.0209 9.925C72.1943 10.375 72.2809 10.8667 72.2809 11.4ZM71.0859 11.4C71.0859 10.9867 71.0293 10.615 70.9159 10.285C70.8059 9.955 70.6459 9.675 70.4359 9.445C70.2293 9.215 69.9776 9.03833 69.6809 8.915C69.3843 8.79167 69.0509 8.73 68.6809 8.73C68.3143 8.73 67.9826 8.79167 67.6859 8.915C67.3893 9.03833 67.1359 9.215 66.9259 9.445C66.7159 9.675 66.5543 9.955 66.4409 10.285C66.3276 10.615 66.2709 10.9867 66.2709 11.4C66.2709 11.8167 66.3276 12.19 66.4409 12.52C66.5543 12.85 66.7159 13.13 66.9259 13.36C67.1359 13.5867 67.3893 13.7617 67.6859 13.885C67.9826 14.005 68.3143 14.065 68.6809 14.065C69.0509 14.065 69.3843 14.005 69.6809 13.885C69.9776 13.7617 70.2293 13.5867 70.4359 13.36C70.6459 13.13 70.8059 12.85 70.9159 12.52C71.0293 12.19 71.0859 11.8167 71.0859 11.4ZM85.218 11.4C85.218 11.9333 85.1314 12.425 84.958 12.875C84.7847 13.325 84.5397 13.7133 84.223 14.04C83.9097 14.3633 83.5314 14.6167 83.088 14.8C82.648 14.9833 82.158 15.075 81.618 15.075C81.0814 15.075 80.5914 14.9833 80.148 14.8C79.708 14.6167 79.3297 14.3633 79.013 14.04C78.6964 13.7133 78.4514 13.325 78.278 12.875C78.1047 12.425 78.018 11.9333 78.018 11.4C78.018 10.8667 78.1047 10.375 78.278 9.925C78.4514 9.475 78.6964 9.08667 79.013 8.76C79.3297 8.43333 79.708 8.17833 80.148 7.995C80.5914 7.81167 81.0814 7.72 81.618 7.72C82.158 7.72 82.648 7.81167 83.088 7.995C83.5314 8.17833 83.9097 8.43333 84.223 8.76C84.5397 9.08667 84.7847 9.475 84.958 9.925C85.1314 10.375 85.218 10.8667 85.218 11.4ZM84.023 11.4C84.023 10.9867 83.9664 10.615 83.853 10.285C83.743 9.955 83.583 9.675 83.373 9.445C83.1664 9.215 82.9147 9.03833 82.618 8.915C82.3214 8.79167 81.988 8.73 81.618 8.73C81.2514 8.73 80.9197 8.79167 80.623 8.915C80.3264 9.03833 80.073 9.215 79.863 9.445C79.653 9.675 79.4914 9.955 79.378 10.285C79.2647 10.615 79.208 10.9867 79.208 11.4C79.208 11.8167 79.2647 12.19 79.378 12.52C79.4914 12.85 79.653 13.13 79.863 13.36C80.073 13.5867 80.3264 13.7617 80.623 13.885C80.9197 14.005 81.2514 14.065 81.618 14.065C81.988 14.065 82.3214 14.005 82.618 13.885C82.9147 13.7617 83.1664 13.5867 83.373 13.36C83.583 13.13 83.743 12.85 83.853 12.52C83.9664 12.19 84.023 11.8167 84.023 11.4ZM89.7899 11.25C90.0566 11.25 90.2899 11.2183 90.4899 11.155C90.6899 11.0883 90.8566 10.9967 90.9899 10.88C91.1233 10.7633 91.2233 10.625 91.2899 10.465C91.3566 10.3017 91.3899 10.1217 91.3899 9.925C91.3899 9.53167 91.2599 9.23167 90.9999 9.025C90.7399 8.81833 90.3466 8.715 89.8199 8.715H88.8699V11.25H89.7899ZM93.1799 15H92.1349C91.9283 15 91.7783 14.92 91.6849 14.76L90.0049 12.335C89.9483 12.2517 89.8866 12.1917 89.8199 12.155C89.7533 12.1183 89.6533 12.1 89.5199 12.1H88.8699V15H87.6999V7.8H89.8199C90.2933 7.8 90.6999 7.84833 91.0399 7.945C91.3833 8.04167 91.6649 8.18 91.8849 8.36C92.1049 8.53667 92.2666 8.75 92.3699 9C92.4766 9.25 92.5299 9.52833 92.5299 9.835C92.5299 10.085 92.4916 10.3183 92.4149 10.535C92.3416 10.7517 92.2333 10.9483 92.0899 11.125C91.9499 11.3017 91.7766 11.455 91.5699 11.585C91.3633 11.715 91.1283 11.8167 90.8649 11.89C91.0083 11.9767 91.1316 12.0983 91.2349 12.255L93.1799 15ZM101.568 11.4C101.568 11.9333 101.481 12.4217 101.308 12.865C101.134 13.305 100.889 13.6833 100.573 14C100.259 14.3167 99.8809 14.5633 99.4376 14.74C98.9976 14.9133 98.5076 15 97.9676 15H95.2476V7.8H97.9676C98.5076 7.8 98.9976 7.88833 99.4376 8.065C99.8809 8.23833 100.259 8.48333 100.573 8.8C100.889 9.11667 101.134 9.49667 101.308 9.94C101.481 10.38 101.568 10.8667 101.568 11.4ZM100.373 11.4C100.373 10.9867 100.316 10.615 100.203 10.285C100.093 9.955 99.9326 9.67667 99.7226 9.45C99.5159 9.22333 99.2642 9.05 98.9676 8.93C98.6709 8.80667 98.3376 8.745 97.9676 8.745H96.4226V14.055H97.9676C98.3376 14.055 98.6709 13.995 98.9676 13.875C99.2642 13.755 99.5159 13.5817 99.7226 13.355C99.9326 13.125 100.093 12.8467 100.203 12.52C100.316 12.19 100.373 11.8167 100.373 11.4ZM108.55 14.055L108.545 15H104.055V7.8H108.545V8.745H105.23V10.915H107.88V11.83H105.23V14.055H108.55ZM113.107 11.25C113.373 11.25 113.607 11.2183 113.807 11.155C114.007 11.0883 114.173 10.9967 114.307 10.88C114.44 10.7633 114.54 10.625 114.607 10.465C114.673 10.3017 114.707 10.1217 114.707 9.925C114.707 9.53167 114.577 9.23167 114.317 9.025C114.057 8.81833 113.663 8.715 113.137 8.715H112.187V11.25H113.107ZM116.497 15H115.452C115.245 15 115.095 14.92 115.002 14.76L113.322 12.335C113.265 12.2517 113.203 12.1917 113.137 12.155C113.07 12.1183 112.97 12.1 112.837 12.1H112.187V15H111.017V7.8H113.137C113.61 7.8 114.017 7.84833 114.357 7.945C114.7 8.04167 114.982 8.18 115.202 8.36C115.422 8.53667 115.583 8.75 115.687 9C115.793 9.25 115.847 9.52833 115.847 9.835C115.847 10.085 115.808 10.3183 115.732 10.535C115.658 10.7517 115.55 10.9483 115.407 11.125C115.267 11.3017 115.093 11.455 114.887 11.585C114.68 11.715 114.445 11.8167 114.182 11.89C114.325 11.9767 114.448 12.0983 114.552 12.255L116.497 15Z" fill="white"/>
<defs>
<filter id="filter0_di_9_20460" x="117" y="0" width="19" height="24" filterUnits="userSpaceOnUse" color-interpolation-filters="sRGB">
<feFlood flood-opacity="0" result="BackgroundImageFix"/>
<feColorMatrix in="SourceAlpha" type="matrix" values="0 0 0 0 0 0 0 0 0 0 0 0 0 0 0 0 0 0 127 0" result="hardAlpha"/>
<feOffset dx="-2" dy="1"/>
<feGaussianBlur stdDeviation="1"/>
<feComposite in2="hardAlpha" operator="out"/>
<feColorMatrix type="matrix" values="0 0 0 0 0 0 0 0 0 0 0 0 0 0 0 0 0 0 0.25 0"/>
<feBlend mode="normal" in2="BackgroundImageFix" result="effect1_dropShadow_9_20460"/>
<feBlend mode="normal" in="SourceGraphic" in2="effect1_dropShadow_9_20460" result="shape"/>
<feColorMatrix in="SourceAlpha" type="matrix" values="0 0 0 0 0 0 0 0 0 0 0 0 0 0 0 0 0 0 127 0" result="hardAlpha"/>
<feOffset dy="2"/>
<feGaussianBlur stdDeviation="2"/>
<feComposite in2="hardAlpha" operator="arithmetic" k2="-1" k3="1"/>
<feColorMatrix type="matrix" values="0 0 0 0 0.6 0 0 0 0 0.6 0 0 0 0 0.6 0 0 0 1 0"/>
<feBlend mode="normal" in2="shape" result="effect2_innerShadow_9_20460"/>
</filter>
<linearGradient id="paint0_linear_9_20460" x1="0" y1="1.51281" x2="137.572" y2="1.51281" gradientUnits="userSpaceOnUse">
<stop stop-color="#DC8B10"/>
<stop offset="0.499925" stop-color="#E8B76E"/>
<stop offset="1" stop-color="#DC8B10"/>
</linearGradient>
</defs>
</svg>
