<svg width="111" height="24" viewBox="0 0 111 24" fill="none" xmlns="http://www.w3.org/2000/svg">
<path d="M110.527 1H0V21H102.249L110.527 1Z" fill="url(#paint0_linear_11_4966)"/>
<g filter="url(#filter0_di_11_4966)">
<path d="M95 16.3846L110.528 1L102.246 21C100.176 18.5385 96.5528 16.8974 95 16.3846Z" fill="#FFFFFE"/>
</g>
<path d="M8.66669 7H6.40002V7.93333H8.66669V7Z" fill="#4E4B66"/>
<path d="M8.13333 8.93333H6V9.86667H8.13333V8.93333Z" fill="#4E4B66"/>
<path d="M8.66669 10.8H6.40002V11.7333H8.66669V10.8Z" fill="#4E4B66"/>
<path d="M19.4667 7.39999H16.9334V6.33333H9.13336V10.7333V12.8V13.3333L10.2 14.6H10.6667C10.6667 14.4667 10.6 14.4 10.6 14.2667C10.6 14.0667 10.6667 13.8 10.7334 13.6L10.1334 12.9333V12.7333H12.6H16.8667V8.4H18.8667L19.2 8.93333H18V11.8667H20.9334V13.5333H20.8C20.8667 13.7333 20.9334 13.9333 20.9334 14.2C20.9334 14.3333 20.9334 14.4 20.8667 14.5333H22V11.2L19.4667 7.39999ZM15.8667 11.7333H10.1334V10.6667V7.26666H15.8667V11.7333ZM19.0667 10.0667H20.0667L20.4667 10.6667H19.0667V10.0667ZM20.9334 11.3333L21.0667 11.4667V11.5333L20.9334 11.3333Z" fill="#4E4B66"/>
<path d="M14.4667 13.6C14.5333 13.8 14.6 14 14.6 14.2667C14.6 14.4 14.6 14.4667 14.5333 14.6H17.0667C17.0667 14.4667 17 14.4 17 14.2667C17 14.0667 17.0667 13.8 17.1333 13.6H14.4667Z" fill="#4E4B66"/>
<path d="M11.1334 14.2C11.1334 15 11.8 15.6667 12.6 15.6667C13.4 15.6667 14.0667 15 14.0667 14.2C14.0667 13.4 13.4 12.7333 12.6 12.7333C11.8 12.7333 11.1334 13.4 11.1334 14.2ZM12.6 13.7333C12.8667 13.7333 13.0667 13.9333 13.0667 14.2C13.0667 14.4667 12.8667 14.6667 12.6 14.6667C12.3334 14.6667 12.1334 14.4667 12.1334 14.2C12.1334 13.9333 12.3334 13.7333 12.6 13.7333Z" fill="#4E4B66"/>
<path d="M19.0666 12.7333C18.2666 12.7333 17.6 13.4 17.6 14.2C17.6 15 18.2666 15.6667 19.0666 15.6667C19.8666 15.6667 20.5333 15 20.5333 14.2C20.5333 13.4 19.8666 12.7333 19.0666 12.7333ZM19.0666 14.7333C18.8 14.7333 18.6 14.5333 18.6 14.2667C18.6 14 18.8 13.8 19.0666 13.8C19.3333 13.8 19.5333 14 19.5333 14.2667C19.5333 14.4667 19.3333 14.7333 19.0666 14.7333Z" fill="#4E4B66"/>
<path d="M30.6 8.99C30.5667 9.04667 30.5317 9.08833 30.495 9.115C30.4583 9.14167 30.4117 9.155 30.355 9.155C30.295 9.155 30.2267 9.12833 30.15 9.075C30.0733 9.01833 29.9767 8.95667 29.86 8.89C29.7467 8.82 29.61 8.75833 29.45 8.705C29.29 8.64833 29.0983 8.62 28.875 8.62C28.665 8.62 28.48 8.64833 28.32 8.705C28.1633 8.75833 28.0317 8.83333 27.925 8.93C27.8183 9.02333 27.7367 9.135 27.68 9.265C27.6267 9.39167 27.6 9.53 27.6 9.68C27.6 9.87333 27.6483 10.0333 27.745 10.16C27.845 10.2867 27.975 10.395 28.135 10.485C28.295 10.575 28.4767 10.6533 28.68 10.72C28.8833 10.7867 29.0917 10.8567 29.305 10.93C29.5183 11 29.7267 11.0817 29.93 11.175C30.1333 11.2683 30.315 11.3867 30.475 11.53C30.635 11.67 30.7633 11.8433 30.86 12.05C30.96 12.2533 31.01 12.5033 31.01 12.8C31.01 13.1167 30.955 13.4133 30.845 13.69C30.7383 13.9667 30.5817 14.2083 30.375 14.415C30.1683 14.6217 29.9133 14.785 29.61 14.905C29.31 15.0217 28.9683 15.08 28.585 15.08C28.355 15.08 28.1317 15.0567 27.915 15.01C27.6983 14.9667 27.4933 14.905 27.3 14.825C27.1067 14.7417 26.925 14.6433 26.755 14.53C26.5883 14.4133 26.4383 14.2833 26.305 14.14L26.61 13.63C26.64 13.59 26.675 13.5567 26.715 13.53C26.7583 13.5033 26.8067 13.49 26.86 13.49C26.93 13.49 27.01 13.5267 27.1 13.6C27.1933 13.6733 27.3067 13.755 27.44 13.845C27.5767 13.9317 27.7383 14.0117 27.925 14.085C28.115 14.1583 28.345 14.195 28.615 14.195C28.835 14.195 29.0317 14.1667 29.205 14.11C29.3783 14.05 29.5233 13.9667 29.64 13.86C29.76 13.75 29.8517 13.6183 29.915 13.465C29.9783 13.3117 30.01 13.1417 30.01 12.955C30.01 12.745 29.9617 12.5733 29.865 12.44C29.7683 12.3067 29.64 12.195 29.48 12.105C29.32 12.015 29.1383 11.9383 28.935 11.875C28.7317 11.8117 28.5233 11.7467 28.31 11.68C28.0967 11.61 27.8883 11.53 27.685 11.44C27.4817 11.35 27.3 11.2333 27.14 11.09C26.98 10.9433 26.8517 10.7617 26.755 10.545C26.6583 10.325 26.61 10.055 26.61 9.735C26.61 9.47833 26.66 9.23 26.76 8.99C26.86 8.75 27.005 8.53833 27.195 8.355C27.3883 8.16833 27.625 8.02 27.905 7.91C28.185 7.79667 28.505 7.74 28.865 7.74C29.2683 7.74 29.6383 7.805 29.975 7.935C30.315 8.06167 30.61 8.245 30.86 8.485L30.6 8.99ZM39.4045 7.82V15H38.3395V11.765H34.5945V15H33.5245V7.82H34.5945V10.99H38.3395V7.82H39.4045ZM43.4507 15H42.3807V7.82H43.4507V15ZM48.5975 11.515C48.8675 11.515 49.1042 11.48 49.3075 11.41C49.5142 11.34 49.6858 11.2417 49.8225 11.115C49.9625 10.985 50.0675 10.8317 50.1375 10.655C50.2075 10.475 50.2425 10.2767 50.2425 10.06C50.2425 9.62333 50.1058 9.28 49.8325 9.03C49.5625 8.78 49.1508 8.655 48.5975 8.655H47.4875V11.515H48.5975ZM48.5975 7.82C49.0575 7.82 49.4575 7.87333 49.7975 7.98C50.1375 8.08667 50.4192 8.23833 50.6425 8.435C50.8658 8.62833 51.0308 8.86333 51.1375 9.14C51.2475 9.41667 51.3025 9.72333 51.3025 10.06C51.3025 10.3967 51.2442 10.7067 51.1275 10.99C51.0108 11.27 50.8392 11.5117 50.6125 11.715C50.3858 11.9183 50.1025 12.0767 49.7625 12.19C49.4258 12.3 49.0375 12.355 48.5975 12.355H47.4875V15H46.4225V7.82H48.5975ZM57.3922 8.99C57.3589 9.04667 57.3239 9.08833 57.2872 9.115C57.2505 9.14167 57.2039 9.155 57.1472 9.155C57.0872 9.155 57.0189 9.12833 56.9422 9.075C56.8655 9.01833 56.7689 8.95667 56.6522 8.89C56.5389 8.82 56.4022 8.75833 56.2422 8.705C56.0822 8.64833 55.8905 8.62 55.6672 8.62C55.4572 8.62 55.2722 8.64833 55.1122 8.705C54.9555 8.75833 54.8239 8.83333 54.7172 8.93C54.6105 9.02333 54.5289 9.135 54.4722 9.265C54.4189 9.39167 54.3922 9.53 54.3922 9.68C54.3922 9.87333 54.4405 10.0333 54.5372 10.16C54.6372 10.2867 54.7672 10.395 54.9272 10.485C55.0872 10.575 55.2689 10.6533 55.4722 10.72C55.6755 10.7867 55.8839 10.8567 56.0972 10.93C56.3105 11 56.5189 11.0817 56.7222 11.175C56.9255 11.2683 57.1072 11.3867 57.2672 11.53C57.4272 11.67 57.5555 11.8433 57.6522 12.05C57.7522 12.2533 57.8022 12.5033 57.8022 12.8C57.8022 13.1167 57.7472 13.4133 57.6372 13.69C57.5305 13.9667 57.3739 14.2083 57.1672 14.415C56.9605 14.6217 56.7055 14.785 56.4022 14.905C56.1022 15.0217 55.7605 15.08 55.3772 15.08C55.1472 15.08 54.9239 15.0567 54.7072 15.01C54.4905 14.9667 54.2855 14.905 54.0922 14.825C53.8989 14.7417 53.7172 14.6433 53.5472 14.53C53.3805 14.4133 53.2305 14.2833 53.0972 14.14L53.4022 13.63C53.4322 13.59 53.4672 13.5567 53.5072 13.53C53.5505 13.5033 53.5989 13.49 53.6522 13.49C53.7222 13.49 53.8022 13.5267 53.8922 13.6C53.9855 13.6733 54.0989 13.755 54.2322 13.845C54.3689 13.9317 54.5305 14.0117 54.7172 14.085C54.9072 14.1583 55.1372 14.195 55.4072 14.195C55.6272 14.195 55.8239 14.1667 55.9972 14.11C56.1705 14.05 56.3155 13.9667 56.4322 13.86C56.5522 13.75 56.6439 13.6183 56.7072 13.465C56.7705 13.3117 56.8022 13.1417 56.8022 12.955C56.8022 12.745 56.7539 12.5733 56.6572 12.44C56.5605 12.3067 56.4322 12.195 56.2722 12.105C56.1122 12.015 55.9305 11.9383 55.7272 11.875C55.5239 11.8117 55.3155 11.7467 55.1022 11.68C54.8889 11.61 54.6805 11.53 54.4772 11.44C54.2739 11.35 54.0922 11.2333 53.9322 11.09C53.7722 10.9433 53.6439 10.7617 53.5472 10.545C53.4505 10.325 53.4022 10.055 53.4022 9.735C53.4022 9.47833 53.4522 9.23 53.5522 8.99C53.6522 8.75 53.7972 8.53833 53.9872 8.355C54.1805 8.16833 54.4172 8.02 54.6972 7.91C54.9772 7.79667 55.2972 7.74 55.6572 7.74C56.0605 7.74 56.4305 7.805 56.7672 7.935C57.1072 8.06167 57.4022 8.245 57.6522 8.485L57.3922 8.99ZM65.1159 8.685V11.09H67.9959V11.955H65.1159V15H64.0459V7.82H68.4959V8.685H65.1159ZM74.1391 12.325L73.0741 9.54C72.9974 9.35 72.9207 9.11 72.8441 8.82C72.8074 8.96333 72.7691 9.09667 72.7291 9.22C72.6924 9.34333 72.6557 9.45333 72.6191 9.55L71.5591 12.325H74.1391ZM76.2441 15H75.4241C75.3307 15 75.2541 14.9767 75.1941 14.93C75.1341 14.8833 75.0907 14.8233 75.0641 14.75L74.4291 13.085H71.2641L70.6291 14.75C70.6057 14.8133 70.5624 14.8717 70.4991 14.925C70.4357 14.975 70.3591 15 70.2691 15H69.4491L72.3091 7.82H73.3841L76.2441 15ZM82.0555 8.99C82.0221 9.04667 81.9871 9.08833 81.9505 9.115C81.9138 9.14167 81.8671 9.155 81.8105 9.155C81.7505 9.155 81.6821 9.12833 81.6055 9.075C81.5288 9.01833 81.4321 8.95667 81.3155 8.89C81.2021 8.82 81.0655 8.75833 80.9055 8.705C80.7455 8.64833 80.5538 8.62 80.3305 8.62C80.1205 8.62 79.9355 8.64833 79.7755 8.705C79.6188 8.75833 79.4871 8.83333 79.3805 8.93C79.2738 9.02333 79.1921 9.135 79.1355 9.265C79.0821 9.39167 79.0555 9.53 79.0555 9.68C79.0555 9.87333 79.1038 10.0333 79.2005 10.16C79.3005 10.2867 79.4305 10.395 79.5905 10.485C79.7505 10.575 79.9321 10.6533 80.1355 10.72C80.3388 10.7867 80.5471 10.8567 80.7605 10.93C80.9738 11 81.1821 11.0817 81.3855 11.175C81.5888 11.2683 81.7705 11.3867 81.9305 11.53C82.0905 11.67 82.2188 11.8433 82.3155 12.05C82.4155 12.2533 82.4655 12.5033 82.4655 12.8C82.4655 13.1167 82.4105 13.4133 82.3005 13.69C82.1938 13.9667 82.0371 14.2083 81.8305 14.415C81.6238 14.6217 81.3688 14.785 81.0655 14.905C80.7655 15.0217 80.4238 15.08 80.0405 15.08C79.8105 15.08 79.5871 15.0567 79.3705 15.01C79.1538 14.9667 78.9488 14.905 78.7555 14.825C78.5621 14.7417 78.3805 14.6433 78.2105 14.53C78.0438 14.4133 77.8938 14.2833 77.7605 14.14L78.0655 13.63C78.0955 13.59 78.1305 13.5567 78.1705 13.53C78.2138 13.5033 78.2621 13.49 78.3155 13.49C78.3855 13.49 78.4655 13.5267 78.5555 13.6C78.6488 13.6733 78.7621 13.755 78.8955 13.845C79.0321 13.9317 79.1938 14.0117 79.3805 14.085C79.5705 14.1583 79.8005 14.195 80.0705 14.195C80.2905 14.195 80.4871 14.1667 80.6605 14.11C80.8338 14.05 80.9788 13.9667 81.0955 13.86C81.2155 13.75 81.3071 13.6183 81.3705 13.465C81.4338 13.3117 81.4655 13.1417 81.4655 12.955C81.4655 12.745 81.4171 12.5733 81.3205 12.44C81.2238 12.3067 81.0955 12.195 80.9355 12.105C80.7755 12.015 80.5938 11.9383 80.3905 11.875C80.1871 11.8117 79.9788 11.7467 79.7655 11.68C79.5521 11.61 79.3438 11.53 79.1405 11.44C78.9371 11.35 78.7555 11.2333 78.5955 11.09C78.4355 10.9433 78.3071 10.7617 78.2105 10.545C78.1138 10.325 78.0655 10.055 78.0655 9.735C78.0655 9.47833 78.1155 9.23 78.2155 8.99C78.3155 8.75 78.4605 8.53833 78.6505 8.355C78.8438 8.16833 79.0805 8.02 79.3605 7.91C79.6405 7.79667 79.9605 7.74 80.3205 7.74C80.7238 7.74 81.0938 7.805 81.4305 7.935C81.7705 8.06167 82.0655 8.245 82.3155 8.485L82.0555 8.99ZM89.8749 8.71H87.5949V15H86.5349V8.71H84.2449V7.82H89.8749V8.71Z" fill="#4E4B66"/>
<defs>
<filter id="filter0_di_11_4966" x="91" y="0" width="19.5278" height="24" filterUnits="userSpaceOnUse" color-interpolation-filters="sRGB">
<feFlood flood-opacity="0" result="BackgroundImageFix"/>
<feColorMatrix in="SourceAlpha" type="matrix" values="0 0 0 0 0 0 0 0 0 0 0 0 0 0 0 0 0 0 127 0" result="hardAlpha"/>
<feOffset dx="-2" dy="1"/>
<feGaussianBlur stdDeviation="1"/>
<feComposite in2="hardAlpha" operator="out"/>
<feColorMatrix type="matrix" values="0 0 0 0 0 0 0 0 0 0 0 0 0 0 0 0 0 0 0.25 0"/>
<feBlend mode="normal" in2="BackgroundImageFix" result="effect1_dropShadow_11_4966"/>
<feBlend mode="normal" in="SourceGraphic" in2="effect1_dropShadow_11_4966" result="shape"/>
<feColorMatrix in="SourceAlpha" type="matrix" values="0 0 0 0 0 0 0 0 0 0 0 0 0 0 0 0 0 0 127 0" result="hardAlpha"/>
<feOffset dy="2"/>
<feGaussianBlur stdDeviation="2"/>
<feComposite in2="hardAlpha" operator="arithmetic" k2="-1" k3="1"/>
<feColorMatrix type="matrix" values="0 0 0 0 0.6 0 0 0 0 0.6 0 0 0 0 0.6 0 0 0 0.6 0"/>
<feBlend mode="normal" in2="shape" result="effect2_innerShadow_11_4966"/>
</filter>
<linearGradient id="paint0_linear_11_4966" x1="0" y1="1.51281" x2="109.653" y2="1.51281" gradientUnits="userSpaceOnUse">
<stop offset="0.38202" stop-color="#DFFCD9"/>
<stop offset="1" stop-color="#ADECB5"/>
</linearGradient>
</defs>
</svg>
