<svg width="29" height="28" viewBox="0 0 29 28" fill="none" xmlns="http://www.w3.org/2000/svg">
<path d="M21.6553 12.8516C21.9486 12.8516 22.1863 12.6139 22.1863 12.3206V7.9638C22.1863 7.57308 22.0196 7.19713 21.7288 6.93222L15.7985 1.53553C15.5372 1.29759 15.198 1.16663 14.8431 1.16663C14.4882 1.16663 14.1489 1.29766 13.8877 1.53547L7.95719 6.93235C7.66667 7.19686 7.5 7.57281 7.5 7.96387V19.9493C7.5 20.3364 7.66376 20.7096 7.94906 20.9733L13.8796 26.4569C14.1421 26.6996 14.4844 26.8333 14.8431 26.8333C15.2021 26.8333 15.5443 26.6996 15.8065 26.4569L21.7369 20.9733C22.0225 20.7095 22.1863 20.3362 22.1863 19.9491V14.3028C22.1863 14.0095 21.9486 13.7718 21.6553 13.7718C21.3621 13.7718 21.1244 14.0095 21.1244 14.3028V19.2215L18.6594 18.4319V9.49207L21.1244 8.69383V12.3206C21.1244 12.6139 21.3621 12.8516 21.6553 12.8516ZM14.3121 2.5848V5.88146L11.4281 8.50588L8.75639 7.64063L14.3121 2.5848ZM8.5618 8.69389L11.0266 9.49214V18.432L8.5618 19.2215V8.69389ZM14.3121 25.4107L8.75693 20.2741L11.4246 19.4196L14.3121 22.0895V25.4107ZM20.929 20.2741L15.374 25.4105V22.0895L18.2613 19.4196L20.929 20.2741ZM18.2579 8.50595L17.4949 7.81163C17.2782 7.61434 16.9423 7.63013 16.7448 7.84693C16.5475 8.0638 16.5633 8.39965 16.7801 8.59701L17.5974 9.34072V18.5872L14.8431 21.1342L12.0885 18.5872V9.34072L14.8431 6.83405L15.4356 7.37321C15.6525 7.5705 15.9883 7.55472 16.1857 7.33791C16.383 7.12097 16.3672 6.7852 16.1504 6.58784L15.3742 5.88139V2.58494L20.9297 7.64056L18.2579 8.50595Z" fill="#4E4B66"/>
</svg>
