<svg width="28" height="28" viewBox="0 0 28 28" fill="none" xmlns="http://www.w3.org/2000/svg">
<path d="M25.55 10.6166C25.55 10.5 25.55 10.6166 25.55 10.6166C25.55 10.5 25.55 10.5 25.4334 10.3833L21.2334 4.78329L21.1167 4.66663H21H6.76671H6.65004L6.53337 4.78329L2.33337 10.3833C2.33337 10.3833 2.33337 10.5 2.33337 10.6166C2.33337 10.7333 2.33337 10.7333 2.45004 10.85L13.7667 24.2666H13.8834H14L25.3167 10.85C25.55 10.7333 25.55 10.6166 25.55 10.6166ZM20.4167 5.24996L18.0834 9.91663L14.5834 5.24996H20.4167ZM17.3834 10.2666H10.3834L13.8834 5.59996L17.3834 10.2666ZM13.1834 5.24996L9.68337 9.91663L7.35004 5.24996H13.1834ZM6.76671 5.59996L9.10004 10.2666H3.26671L6.76671 5.59996ZM3.38337 10.9666H9.45004L13.0667 22.5166L3.38337 10.9666ZM13.8834 22.8666L10.15 10.9666H17.6167L13.8834 22.8666ZM14.7 22.4L18.4334 10.9666H24.3834L14.7 22.4ZM18.6667 10.2666L21 5.59996L24.5 10.2666H18.6667Z" fill="#4E4B66" stroke="#4E4B66" stroke-width="0.7" stroke-miterlimit="10"/>
</svg>
